<?xml version="1.0" encoding="UTF-8"?>
<svg width="35px" height="35px" viewBox="0 0 35 35" version="1.1" xmlns="http://www.w3.org/2000/svg" xmlns:xlink="http://www.w3.org/1999/xlink">
    <!-- Generator: Sketch 48.2 (47327) - http://www.bohemiancoding.com/sketch -->
    <title>COLOR/tweet</title>
    <desc>Created with Sketch.</desc>
    <defs>
        <path d="M7.59329467,17.4207827 C7.45952779,17.4847714 7.32471337,17.5463166 7.1889202,17.6053985 L7.59329467,17.4207827 Z M7.1889202,17.6053985 L7.59329467,17.4207827 C4.97209104,15.8487604 3.30301491,13.7504494 2.49244088,11.259417 C1.67123038,8.73569696 1.79125344,6.08012788 2.47741728,3.55746669 C2.68496005,2.79444182 2.89564159,2.22023135 3.04462101,1.88502764 C3.37973168,1.13102863 4.40925532,1.03083668 4.88345751,1.70607437 C6.85623188,4.51519592 9.98736223,6.25784102 13.3760093,6.48058726 C13.3408597,3.7961875 14.94655,1.43087159 17.3966572,0.495716168 C19.6187836,-0.352423676 22.1067893,0.139456026 23.8344573,1.71458105 C24.8030238,1.36409297 25.721321,0.885408929 26.5645687,0.290603343 C27.366105,-0.2747801 28.4399986,0.456255072 28.2079055,1.40927747 C27.8116524,3.03637466 27.0139624,4.53501632 25.8914732,5.76998136 C25.9110579,5.96850616 25.9212132,6.16840739 25.921875,6.36948529 C25.921875,20.0278236 12.7472877,27.040104 1.18298016,20.6154887 C0.205601764,20.0725007 0.623524284,18.5823202 1.74072157,18.6267579 C3.62039708,18.701524 5.48198498,18.3480647 7.1889202,17.6053985 Z M23.8461622,3.94645902 C23.4463382,4.06685461 23.0130704,3.94168255 22.7390533,3.62661274 C21.6027122,2.32002718 19.771519,1.86183637 18.1537521,2.47930465 C16.5359852,3.09677293 15.4757733,4.65855349 15.4990809,6.40422794 L15.4990809,7.56231618 C15.4990809,8.13789231 15.0404001,8.60862076 14.4650174,8.62354036 C10.6563786,8.72229787 7.02037832,7.19771439 4.42950288,4.48894135 C3.92993146,6.53258502 3.8759707,8.64965641 4.51140441,10.6024527 C5.30402467,13.0383101 7.11817361,15.0154065 10.2362959,16.4012387 C10.997198,16.7394174 11.090303,17.7820119 10.4013626,18.2496634 C9.01570479,19.1902456 7.48731503,19.8782635 5.88647012,20.2936381 C14.9584427,22.8924027 23.7987139,16.9294313 23.798719,6.37299492 C23.7978698,6.11612465 23.7731723,5.85988804 23.7249445,5.60758438 C23.6584147,5.25953356 23.7699327,4.90123592 24.022234,4.65241938 C24.362231,4.31711822 24.6695648,3.95307991 24.9413719,3.56535677 C24.5823015,3.70763 24.2169202,3.83481585 23.8461622,3.94645902 Z" id="path-1"></path>
    </defs>
    <g id="Page-1&amp;7_會員中心" stroke="none" stroke-width="1" fill="none" fill-rule="evenodd">
        <g id="COLOR/org" transform="translate(3.000000, 6.000000)">
            <mask id="mask-2" fill="white">
                <use xlink:href="#path-1"></use>
            </mask>
            <use id="Mask" fill="#F5A623" fill-rule="nonzero" xlink:href="#path-1"></use>
        </g>
    </g>
</svg>