<?xml version="1.0" encoding="UTF-8"?>
<svg width="50px" height="50px" viewBox="0 0 50 50" version="1.1" xmlns="http://www.w3.org/2000/svg" xmlns:xlink="http://www.w3.org/1999/xlink">
    <!-- Generator: Sketch 48.2 (47327) - http://www.bohemiancoding.com/sketch -->
    <title>facebook</title>
    <desc>Created with Sketch.</desc>
    <defs></defs>
    <g id="Page-1&amp;7_會員中心" stroke="none" stroke-width="1" fill="none" fill-rule="evenodd">
        <path d="M33.3676025,6 L16.1323975,6 C10.5454102,6 6,10.5454102 6,16.1323975 L6,33.3676025 C6,38.9545898 10.5454102,43.5 16.1323975,43.5 L33.3676025,43.5 C38.9545898,43.5 43.5,38.9545898 43.5,33.3676025 L43.5,16.1323975 C43.5,10.5454102 38.9545898,6 33.3676025,6 Z M40.4704102,33.3676025 C40.4704102,37.284082 37.2841553,40.4704102 33.3676025,40.4704102 L16.1323975,40.4704102 C12.215918,40.4704102 9.02958984,37.2841553 9.02958984,33.3676025 L9.02958984,16.1323975 C9.02958984,12.215918 12.2158447,9.02958984 16.1323975,9.02958984 L33.3676025,9.02958984 C37.284082,9.02958984 40.4704102,12.2158447 40.4704102,16.1323975 L40.4704102,33.3676025 Z M25.3181818,27.2566413 L20.4696733,27.2566413 L20.4696733,22.5265945 L25.3181818,22.5265945 L25.3181818,19.7765331 C25.3181818,16.4063911 27.9848722,13.5683769 31.3787642,13.2727273 L35.3875954,13.2727273 L35.3875954,18.0027741 L31.9848011,18.0027741 C30.9544744,18.0027741 30.1666193,18.7713799 30.1666193,19.7765331 L30.1666193,22.5265945 L36.2272727,22.5265945 L36.2272727,27.2566413 L30.1666903,27.2566413 L30.1666903,40.4704102 L25.3181818,40.4704102 L25.3181818,27.2566413 Z" id="facebook" fill="#F5A623" fill-rule="nonzero"></path>
    </g>
</svg>