<?xml version="1.0" encoding="UTF-8"?>
<svg width="32px" height="32px" viewBox="0 0 32 32" version="1.1" xmlns="http://www.w3.org/2000/svg" xmlns:xlink="http://www.w3.org/1999/xlink">
    <!-- Generator: Sketch 48.2 (47327) - http://www.bohemiancoding.com/sketch -->
    <title>Mask</title>
    <desc>Created with Sketch.</desc>
    <defs></defs>
    <g id="Page-1&amp;7_會員中心" stroke="none" stroke-width="1" fill="none" fill-rule="evenodd">
        <path d="M26.4698413,26.1062802 C26.4698413,26.661233 26.02639,27.1111111 25.4793651,27.1111111 C24.9323402,27.1111111 24.4888889,26.661233 24.4888889,26.1062802 L24.4888889,23.7616747 C24.4888889,21.7268478 22.8629008,20.0772947 20.8571429,20.0772947 L11.6126984,20.0772947 C9.60694046,20.0772947 7.98095238,21.7268478 7.98095238,23.7616747 L7.98095238,26.1062802 C7.98095238,26.661233 7.53750109,27.1111111 6.99047619,27.1111111 C6.4434513,27.1111111 6,26.661233 6,26.1062802 L6,23.7616747 C6,20.6169422 8.51289067,18.0676329 11.6126984,18.0676329 L20.8571429,18.0676329 C23.9569506,18.0676329 26.4698413,20.6169422 26.4698413,23.7616747 L26.4698413,26.1062802 Z M16.2349206,15.3880837 C13.1351129,15.3880837 10.6222222,12.8387744 10.6222222,9.69404187 C10.6222222,6.54930938 13.1351129,4 16.2349206,4 C19.3347284,4 21.847619,6.54930938 21.847619,9.69404187 C21.847619,12.8387744 19.3347284,15.3880837 16.2349206,15.3880837 Z" id="Mask" fill="#FFFFFF" fill-rule="nonzero"></path>
    </g>
</svg>