<?xml version="1.0" encoding="UTF-8"?>
<svg width="21px" height="21px" viewBox="0 0 21 21" version="1.1" xmlns="http://www.w3.org/2000/svg" xmlns:xlink="http://www.w3.org/1999/xlink">
    <!-- Generator: Sketch 48.2 (47327) - http://www.bohemiancoding.com/sketch -->
    <title>Mask</title>
    <desc>Created with Sketch.</desc>
    <defs></defs>
    <g id="Page-1&amp;7_會員中心" stroke="none" stroke-width="1" fill="none" fill-rule="evenodd">
        <path d="M18.1448111,17.5087444 L14.3537278,13.5657611 C15.3285556,12.4070278 15.8625,10.9491222 15.8625,9.43125 C15.8625,5.88505 12.9774111,3 9.43125,3 C5.88508889,3 3,5.88505 3,9.43125 C3,12.9774111 5.88508889,15.8625 9.43125,15.8625 C10.7625722,15.8625 12.0311667,15.4610111 13.1158167,14.6987111 L16.9357556,18.6716 C17.0953944,18.8375 17.3102167,18.9289667 17.5403611,18.9289667 C17.7581778,18.9289667 17.9647944,18.8458611 18.1215556,18.6948556 C18.4549889,18.3741778 18.4656444,17.8423333 18.1448111,17.5087444 Z M9.4625,4.67770556 C12.116198,4.67770556 14.275,6.83650753 14.275,9.49020556 C14.275,12.1439036 12.116198,14.3027056 9.4625,14.3027056 C6.80880197,14.3027056 4.65,12.1439036 4.65,9.49020556 C4.65,6.83650753 6.80880197,4.67770556 9.4625,4.67770556 Z" id="Mask" fill="#9B9B9B"></path>
    </g>
</svg>