<?xml version="1.0" encoding="UTF-8"?>
<svg width="50px" height="50px" viewBox="0 0 50 50" version="1.1" xmlns="http://www.w3.org/2000/svg" xmlns:xlink="http://www.w3.org/1999/xlink">
    <!-- Generator: Sketch 48.2 (47327) - http://www.bohemiancoding.com/sketch -->
    <title>google+</title>
    <desc>Created with Sketch.</desc>
    <defs></defs>
    <g id="Page-1&amp;7_會員中心" stroke="none" stroke-width="1" fill="none" fill-rule="evenodd">
        <path d="M23.9377946,19.9214782 C23.9377946,18.2391073 22.9276855,14.8743656 20.4024126,14.8743656 C19.3923034,14.8743656 18.2138427,15.547314 18.2138427,17.7343961 C18.2138427,19.7532411 19.2239519,22.6132715 21.5808732,22.6132715 C21.5808732,22.6132715 23.9377946,22.4450344 23.9377946,19.9214782 Z M22.9276855,28.1650953 C22.7593339,28.1650953 22.5909824,28.1650953 22.4226309,28.1650953 C21.9175763,28.1650953 20.4024126,28.3333324 19.3923034,28.6697406 C18.2138427,29.0062807 16.8670305,29.8474661 16.8670305,31.529837 C16.8670305,33.3804449 18.5505458,35.2310529 21.9175763,35.2310529 C24.4428492,35.2310529 25.9580129,33.548682 25.9580129,31.8663112 C25.9580129,30.6886516 25.1162553,29.8474661 22.9276855,28.1650953 Z M20.4024126,37.2498979 C15.6885698,37.2498979 13.5,34.5581045 13.5,32.2027853 C13.5,31.3615999 13.6683515,29.510992 16.0252729,28.1651613 C17.3720851,27.3239759 19.0556004,26.8192646 21.2441702,26.6510275 C20.9074671,26.3144874 20.7391156,25.8098421 20.7391156,24.9686567 C20.7391156,24.6321825 20.7391156,24.4639454 20.9074671,24.1274712 L20.234061,24.1274712 C16.8670305,24.1274712 14.8468122,21.603915 14.8468122,19.0803587 C14.8468122,16.2203283 17.035382,13.0238237 21.7492248,13.0238237 L28.8199889,13.0238237 L28.3150003,13.5285349 L27.1364736,14.7061285 L26.9681221,14.8743656 L25.7896614,14.8743656 C26.4630015,15.547314 27.3047591,16.7249735 27.3047591,18.5755815 C27.3047591,20.9309007 26.1262984,22.1085603 24.6111347,23.1179828 C24.2744316,23.2862198 23.9377286,23.7909311 23.9377286,24.2956424 C23.9377286,24.8003536 24.2744316,25.1368278 24.6111347,25.3050649 C24.7794862,25.4733019 25.1161893,25.641605 25.4528923,25.8097761 C26.7997045,26.8191986 28.6515713,27.9967922 28.6515713,30.6886516 C28.6516373,33.7169191 26.4630675,37.2498979 20.4024126,37.2498979 Z M36.2280282,25.1368278 L33.7021831,25.1368278 L33.7021831,27.6598118 C33.7021831,28.1247017 33.3253154,28.5015695 32.8604255,28.5015695 L32.8604255,28.5015695 C32.3955356,28.5015695 32.0186679,28.1247017 32.0186679,27.6598118 L32.0186679,25.1368278 L29.4928228,25.1368278 C29.0282489,25.1368278 28.6516373,24.7602162 28.6516373,24.2956424 L28.6516373,24.2956424 C28.6516373,23.8310685 29.0282489,23.4544569 29.4928228,23.4544569 L32.0186679,23.4544569 L32.0186679,20.9314729 C32.0186679,20.466583 32.3955356,20.0897152 32.8604255,20.0897152 L32.8604255,20.0897152 C33.3253154,20.0897152 33.7021831,20.466583 33.7021831,20.9314729 L33.7021831,23.4544569 L36.2280282,23.4544569 C36.6926021,23.4544569 37.0692136,23.8310685 37.0692136,24.2956424 L37.0692136,24.2956424 C37.0692136,24.7602162 36.6926021,25.1368278 36.2280282,25.1368278 Z M33.3676025,6 L16.1323975,6 C10.5454102,6 6,10.5454102 6,16.1323975 L6,33.3676025 C6,38.9545898 10.5454102,43.5 16.1323975,43.5 L33.3676025,43.5 C38.9545898,43.5 43.5,38.9545898 43.5,33.3676025 L43.5,16.1323975 C43.5,10.5454102 38.9545898,6 33.3676025,6 Z M40.2952311,33.4629106 C40.2952311,37.3793901 37.1089762,40.5657182 33.1924235,40.5657182 L15.9572184,40.5657182 C12.0407389,40.5657182 8.85441081,37.3794633 8.85441081,33.4629106 L8.85441081,16.2277055 C8.85441081,12.311226 12.0406657,9.12489788 15.9572184,9.12489788 L33.1924235,9.12489788 C37.108903,9.12489788 40.2952311,12.3111528 40.2952311,16.2277055 L40.2952311,33.4629106 Z" id="google+" fill="#F5A623" fill-rule="nonzero"></path>
    </g>
</svg>