<?xml version="1.0" encoding="UTF-8"?>
<svg width="25px" height="25px" viewBox="0 0 25 25" version="1.1" xmlns="http://www.w3.org/2000/svg" xmlns:xlink="http://www.w3.org/1999/xlink">
    <!-- Generator: Sketch 48.2 (47327) - http://www.bohemiancoding.com/sketch -->
    <title>edit</title>
    <desc>Created with Sketch.</desc>
    <defs></defs>
    <g id="Page-1&amp;7_會員中心" stroke="none" stroke-width="1" fill="none" fill-rule="evenodd">
        <path d="M17.8513058,5.13427029 L20.2089326,7.49189706 C20.3879596,7.67092411 20.3879596,7.9611843 20.2089326,8.14021135 L14.3148656,14.0342783 C14.2288938,14.1202501 14.112291,14.1685486 13.9907085,14.1685486 L11.6330817,14.1685486 C11.3798992,14.1685486 11.1746543,13.9633036 11.1746543,13.7101212 L11.1746543,11.3524944 C11.1746543,11.2309119 11.2229527,11.1143091 11.3089246,11.0283372 L17.2029915,5.13427029 C17.3820186,4.95524324 17.6722788,4.95524324 17.8513058,5.13427029 Z M18.6607143,14.0072406 C18.6607143,13.6867182 18.920549,13.4268834 19.2410714,13.4268834 C19.5615938,13.4268834 19.8214286,13.6867182 19.8214286,14.0072406 L19.8214286,17.9672108 C19.8214286,19.106846 18.8975717,20.0307029 17.7579365,20.0307029 L7.37599206,20.0307029 C6.23635687,20.0307029 5.3125,19.106846 5.3125,17.9672108 L5.3125,7.58526636 C5.3125,6.44563116 6.23635687,5.52177429 7.37599206,5.52177429 L11.3359623,5.52177429 C11.6564847,5.52177429 11.9163194,5.78160904 11.9163194,6.10213143 C11.9163194,6.42265383 11.6564847,6.68248858 11.3359623,6.68248858 L7.37599206,6.68248858 C6.87740166,6.68248858 6.47321429,7.08667596 6.47321429,7.58526636 L6.47321429,17.9672108 C6.47321429,18.4658012 6.87740166,18.8699886 7.37599206,18.8699886 L17.7579365,18.8699886 C18.2565269,18.8699886 18.6607143,18.4658012 18.6607143,17.9672108 L18.6607143,14.0072406 Z M18.3482143,14.0072406 C18.3482143,13.5141292 18.74796,13.1143834 19.2410714,13.1143834 C19.7341828,13.1143834 20.1339286,13.5141292 20.1339286,14.0072406 L20.1339286,17.9672108 C20.1339286,19.279435 19.0701607,20.3432029 17.7579365,20.3432029 L7.37599206,20.3432029 C6.06376788,20.3432029 5,19.279435 5,17.9672108 L5,7.58526636 C5,6.27304217 6.06376788,5.20927429 7.37599206,5.20927429 L11.3359623,5.20927429 C11.8290737,5.20927429 12.2288194,5.60902005 12.2288194,6.10213143 C12.2288194,6.59524282 11.8290737,6.99498858 11.3359623,6.99498858 L7.37599206,6.99498858 C7.04999065,6.99498858 6.78571429,7.25926494 6.78571429,7.58526636 L6.78571429,17.9672108 C6.78571429,18.2932122 7.04999065,18.5574886 7.37599206,18.5574886 L17.7579365,18.5574886 C18.0839379,18.5574886 18.3482143,18.2932122 18.3482143,17.9672108 L18.3482143,14.0072406 Z M18.9732143,14.0072406 L18.9732143,17.9672108 C18.9732143,18.6383902 18.4291159,19.1824886 17.7579365,19.1824886 L7.37599206,19.1824886 C6.70481268,19.1824886 6.16071429,18.6383902 6.16071429,17.9672108 L6.16071429,7.58526636 C6.16071429,6.91408697 6.70481268,6.36998858 7.37599206,6.36998858 L11.3359623,6.36998858 C11.4838957,6.36998858 11.6038194,6.25006485 11.6038194,6.10213143 C11.6038194,5.95419802 11.4838957,5.83427429 11.3359623,5.83427429 L7.37599206,5.83427429 C6.40894585,5.83427429 5.625,6.61822014 5.625,7.58526636 L5.625,17.9672108 C5.625,18.934257 6.40894585,19.7182029 7.37599206,19.7182029 L17.7579365,19.7182029 C18.7249827,19.7182029 19.5089286,18.934257 19.5089286,17.9672108 L19.5089286,14.0072406 C19.5089286,13.8593071 19.3890048,13.7393834 19.2410714,13.7393834 C19.093138,13.7393834 18.9732143,13.8593071 18.9732143,14.0072406 Z" id="edit" fill="#9B9B9B" fill-rule="nonzero"></path>
    </g>
</svg>