<?xml version="1.0" encoding="UTF-8"?>
<svg width="20px" height="20px" viewBox="0 0 20 20" version="1.1" xmlns="http://www.w3.org/2000/svg" xmlns:xlink="http://www.w3.org/1999/xlink">
    <!-- Generator: Sketch 48.2 (47327) - http://www.bohemiancoding.com/sketch -->
    <title>time</title>
    <desc>Created with Sketch.</desc>
    <defs></defs>
    <g id="Page-2&amp;3_活動&amp;主播" stroke="none" stroke-width="1" fill="none" fill-rule="evenodd">
        <path d="M10.4722222,18.3701978 C5.79314309,18.3701978 2,14.4817466 2,9.6850989 C2,4.88845123 5.79314309,1 10.4722222,1 C15.1513014,1 18.9444444,4.88845123 18.9444444,9.6850989 C18.9444444,14.4817466 15.1513014,18.3701978 10.4722222,18.3701978 Z M10.4722222,16.6616538 C14.2308268,16.6616538 17.2777778,13.5381438 17.2777778,9.6850989 C17.2777778,5.83205405 14.2308268,2.70854405 10.4722222,2.70854405 C6.71361767,2.70854405 3.66666667,5.83205405 3.66666667,9.6850989 C3.66666667,13.5381438 6.71361767,16.6616538 10.4722222,16.6616538 Z M11.4251288,5.10484307 C11.4251288,4.67782634 11.087448,4.33166089 10.6708977,4.33166089 C10.2543474,4.33166089 9.91666667,4.67782634 9.91666667,5.10484307 L9.91666667,10.3006274 C9.91666667,10.505688 9.99613007,10.7023499 10.1375758,10.8473497 L12.6717922,13.4452419 C12.9663377,13.7471883 13.4438904,13.7471883 13.7384359,13.4452419 C14.0329815,13.1432954 14.0329815,12.6537436 13.7384359,12.3517971 L11.4251288,9.9803648 L11.4251288,5.10484307 Z" id="time" fill="#9B9B9B" fill-rule="nonzero"></path>
    </g>
</svg>