<?xml version="1.0" encoding="UTF-8"?>
<svg width="30px" height="30px" viewBox="0 0 30 30" version="1.1" xmlns="http://www.w3.org/2000/svg" xmlns:xlink="http://www.w3.org/1999/xlink">
    <!-- Generator: Sketch 48.2 (47327) - http://www.bohemiancoding.com/sketch -->
    <title>date</title>
    <desc>Created with Sketch.</desc>
    <defs></defs>
    <g id="Page-1&amp;7_會員中心" stroke="none" stroke-width="1" fill="none" fill-rule="evenodd">
        <path d="M7.72082888,9.125 C7.31582237,9.125 6.98749971,9.42720778 6.98749971,9.79999997 L6.98749971,23.2999995 C6.98749971,23.6727916 7.31582237,23.9749994 7.72082888,23.9749994 L22.3874123,23.9749994 C22.7924188,23.9749994 23.1207415,23.6727916 23.1207415,23.2999995 L23.1207415,9.79999997 C23.1207415,9.42720778 22.7924188,9.125 22.3874123,9.125 L7.72082888,9.125 Z M7.33653846,7.17241379 L22.9134615,7.17241379 C24.2038961,7.17241379 25.25,8.14503658 25.25,9.34482759 L25.25,23.8275862 C25.25,25.0273772 24.2038961,26 22.9134615,26 L7.33653846,26 C6.0461039,26 5,25.0273772 5,23.8275862 L5,9.34482759 C5,8.14503658 6.0461039,7.17241379 7.33653846,7.17241379 Z M17.69,5.72413793 C17.69,5.32420759 18.1595844,5 18.7388462,5 C19.3181079,5 19.7876923,5.32420759 19.7876923,5.72413793 L19.7876923,9.5862069 C19.7876923,9.98613723 19.3181079,10.3103448 18.7388462,10.3103448 C18.1595844,10.3103448 17.69,9.98613723 17.69,9.5862069 L17.69,5.72413793 Z M10.1923077,5.72413793 C10.1923077,5.32420759 10.6618921,5 11.2411538,5 C11.8204156,5 12.29,5.32420759 12.29,5.72413793 L12.29,9.5862069 C12.29,9.98613723 11.8204156,10.3103448 11.2411538,10.3103448 C10.6618921,10.3103448 10.1923077,9.98613723 10.1923077,9.5862069 L10.1923077,5.72413793 Z M5.77884615,15.1591379 C5.3487013,15.1591379 5,14.7394049 5,14.2216379 C5,13.703871 5.3487013,13.2841379 5.77884615,13.2841379 L24.4711538,13.2841379 C24.9012987,13.2841379 25.25,13.703871 25.25,14.2216379 C25.25,14.7394049 24.9012987,15.1591379 24.4711538,15.1591379 L5.77884615,15.1591379 Z" id="date" fill="#9B9B9B" fill-rule="nonzero"></path>
    </g>
</svg>