<?xml version="1.0" encoding="UTF-8"?>
<svg width="20px" height="20px" viewBox="0 0 20 20" version="1.1" xmlns="http://www.w3.org/2000/svg" xmlns:xlink="http://www.w3.org/1999/xlink">
    <!-- Generator: Sketch 48.2 (47327) - http://www.bohemiancoding.com/sketch -->
    <title>icon_diamond_24</title>
    <desc>Created with Sketch.</desc>
    <defs>
        <linearGradient x1="50%" y1="-22.7939775%" x2="50%" y2="106.977032%" id="linearGradient-1">
            <stop stop-color="#CEC1FD" offset="0%"></stop>
            <stop stop-color="#EDE9FE" offset="100%"></stop>
        </linearGradient>
        <polygon id="path-2" points="2.71215476e-05 0.0319907748 4.39141284 0.0319907748 4.39141284 6.41225231 2.71215476e-05 6.41225231"></polygon>
        <linearGradient x1="50%" y1="3.53754783%" x2="50%" y2="96.4405293%" id="linearGradient-4">
            <stop stop-color="#E5E0FC" offset="0%"></stop>
            <stop stop-color="#D6C3FC" offset="100%"></stop>
        </linearGradient>
        <linearGradient x1="50%" y1="0%" x2="50%" y2="113.442476%" id="linearGradient-5">
            <stop stop-color="#F8F7FF" offset="0%"></stop>
            <stop stop-color="#EDE9FE" offset="100%"></stop>
        </linearGradient>
        <path d="M15.539254,0.179736916 L9.188288,0.138829295 L2.85255842,0.0961809246 L0.0436196306,5.17851763 C-0.0251618229,5.30254606 -0.0116667276,5.45551445 0.0775750317,5.56605206 L9.00653954,15.0775091 C9.11014705,15.2058894 9.26098738,15.2067598 9.36633619,15.0799026 L18.183422,5.68420546 C18.2739697,5.57497341 18.2894238,5.42222261 18.2223837,5.29732381 L15.539254,0.179736916 Z" id="path-6"></path>
        <filter x="-27.4%" y="-33.2%" width="154.8%" height="166.3%" filterUnits="objectBoundingBox" id="filter-7">
            <feGaussianBlur stdDeviation="3" in="SourceAlpha" result="shadowBlurInner1"></feGaussianBlur>
            <feOffset dx="0" dy="-4" in="shadowBlurInner1" result="shadowOffsetInner1"></feOffset>
            <feComposite in="shadowOffsetInner1" in2="SourceAlpha" operator="arithmetic" k2="-1" k3="1" result="shadowInnerInner1"></feComposite>
            <feColorMatrix values="0 0 0 0 0.802749719   0 0 0 0 0.71969697   0 0 0 0 1  0 0 0 1 0" type="matrix" in="shadowInnerInner1"></feColorMatrix>
        </filter>
        <linearGradient x1="50%" y1="0%" x2="50%" y2="100%" id="linearGradient-8">
            <stop stop-color="#FFFFFF" stop-opacity="0" offset="0%"></stop>
            <stop stop-color="#FFFFFF" stop-opacity="0.5" offset="100%"></stop>
        </linearGradient>
    </defs>
    <g id="Page-1&amp;7_會員中心" stroke="none" stroke-width="1" fill="none" fill-rule="evenodd">
        <g id="icon_diamond_24">
            <rect id="Rectangle-7" x="0" y="0" width="20" height="20"></rect>
            <g id="icon_diamond" transform="translate(0.833333, 0.833333)">
                <g id="Group-3-Copy" transform="translate(0.000000, 1.527778)">
                    <g id="Page-1" transform="translate(0.000000, 0.038182)">
                        <path d="M2.85247135,0.0961809246 L0.0435325655,5.17851763 C0.0145834094,5.23074013 0.000217662827,5.28796728 0,5.34519443 L0,5.34519443 L0,5.34693518 C0,5.42505133 0.0261195393,5.50251469 0.0774879666,5.56605206 L0.0774879666,5.56605206 L9.00645247,15.0775091 C9.05738558,15.1403937 9.11963714,15.1728152 9.18210638,15.1743383 L9.18210638,15.1743383 L9.19211887,15.1743383 C9.25371745,15.1728152 9.31531603,15.1412641 9.36624913,15.079685 L9.36624913,15.079685 L18.1835526,5.68420546 C18.2741003,5.57497341 18.2893367,5.42222261 18.2225143,5.29732381 L18.2225143,5.29732381 L15.5393846,0.179736916 L9.1884186,0.138829295 L2.85247135,0.0961809246 Z" id="Fill-1" fill="url(#linearGradient-1)"></path>
                        <g id="Group-8" transform="translate(0.000000, 0.064190)">
                            <path d="M18.1835308,5.62008059 L13.8581351,6.41233935 L15.5393628,0.115612045 L18.2224925,5.23319894 C18.2224925,5.23319894 18.3365478,5.4355611 18.1835308,5.62008059" id="Fill-3" fill="#E9E5FE"></path>
                            <g id="Group-7">
                                <mask id="mask-3" fill="white">
                                    <use xlink:href="#path-2"></use>
                                </mask>
                                <g id="Clip-6"></g>
                                <path d="M0.0769002769,5.50184015 L4.39141284,6.41225231 L2.85253665,0.0319690154 L0.0431625387,5.11430572 C0.0431625387,5.11430572 -0.0735047368,5.31536233 0.0769002769,5.50184015" id="Fill-5" fill="#E9E5FE" mask="url(#mask-3)"></path>
                            </g>
                        </g>
                        <polygon id="Fill-9" fill="url(#linearGradient-4)" points="4.39134754 6.47646422 13.8581569 6.47646422 9.1884186 0.138176514"></polygon>
                        <polygon id="Fill-11" fill="url(#linearGradient-5)" points="4.40658394 6.47646422 9.1884186 15.1743383 13.8581569 6.47646422"></polygon>
                        <polygon id="Fill-16" fill="#FFFFFF" points="9.1883533 0.138089477 15.5393193 0.179649879 13.8580916 6.47637718"></polygon>
                        <polygon id="Fill-18" fill="#FFFFFF" points="2.85253665 0.0962244434 9.18826623 0.138002439 4.40664924 6.47650774"></polygon>
                        <path d="M13.8581134,6.47646422 L4.84491334,6.3626627 C4.7661194,6.36179233 4.72128086,6.2723613 4.76764304,6.20882394 L9.18837507,0.138829295 L4.34994807,6.28955121 C4.26680087,6.39551935 4.3427652,6.55066368 4.47749849,6.54957571 L13.8581134,6.47646422 Z" id="Fill-20" fill="#FFFFFF"></path>
                        <path d="M15.5269778,0.254806752 L13.7824102,6.16639316 C13.7824102,6.16639316 13.6661783,6.6435762 13.8581569,6.6435762 L17.9162627,5.74730764 L13.9920195,6.34808392 L15.5269778,0.254806752 Z" id="Fill-22" fill-opacity="0.5" fill="#FFFFFF"></path>
                        <path d="M1.80333653,1.99453389 C1.80333653,1.99453389 0.116014287,5.23755081 0.137998233,5.34351896 C0.169559343,5.49670494 4.04918158,6.37208451 4.04918158,6.37208451 L0.0774879666,5.56611734 C0.0774879666,5.56611734 -0.0520214158,5.43251479 0.0435325655,5.17858291 C0.139086547,4.92465103 1.80333653,1.99453389 1.80333653,1.99453389" id="Fill-25" fill="#FFFFFF"></path>
                        <g id="Fill-27">
                            <use fill-opacity="0.12" fill="#B2A3FF" fill-rule="evenodd" xlink:href="#path-6"></use>
                            <use fill="black" fill-opacity="1" filter="url(#filter-7)" xlink:href="#path-6"></use>
                        </g>
                        <path d="M3.82868913,9.56194329 L0.0774879666,5.56605206 C-0.0117537927,5.45551445 -0.0250312252,5.30254606 0.0435325655,5.17851763 L2.85247135,0.0961809246 L9.1884186,0.138611702 L15.5391669,0.179736916 L18.2225143,5.29732381 C18.2893367,5.42222261 18.2741003,5.57497341 18.1835526,5.68420546 L14.5446655,9.56194329 C14.5446655,9.56194329 9.48400472,13.3330602 3.82868913,9.56194329" id="Fill-33" fill-opacity="0.4" fill="url(#linearGradient-8)"></path>
                    </g>
                </g>
                <rect id="Rectangle-8" x="0" y="0" width="18.3333333" height="18.3333333"></rect>
            </g>
        </g>
    </g>
</svg>