<?xml version="1.0" encoding="UTF-8"?>
<svg width="35px" height="35px" viewBox="0 0 35 35" version="1.1" xmlns="http://www.w3.org/2000/svg" xmlns:xlink="http://www.w3.org/1999/xlink">
    <!-- Generator: Sketch 48.2 (47327) - http://www.bohemiancoding.com/sketch -->
    <title>客服</title>
    <desc>Created with Sketch.</desc>
    <defs></defs>
    <g id="Page-1&amp;7_會員中心" stroke="none" stroke-width="1" fill="none" fill-rule="evenodd">
        <path d="M17.0626868,22.25 C15.4985449,22.25 14.1594527,21.7263999 13.0457837,20.679668 C11.9321147,19.632936 11.375,18.3736268 11.375,16.9030867 L11.375,8.34749861 C11.375,6.87689991 11.9318656,5.61800047 13.0457837,4.57091734 C14.1596394,3.52389274 15.4985449,3 17.0626868,3 C18.6270154,3 19.9657341,3.52389274 21.0795276,4.57091734 C22.1935701,5.61817606 22.75,6.87689991 22.75,8.34749861 L22.75,16.9030867 C22.75,18.3736854 22.1931344,19.632936 21.0795276,20.679668 C19.9657341,21.7263999 18.6270154,22.25 17.0626868,22.25 Z M26.7924499,13.8247868 C27.0140684,14.041471 27.125,14.2976013 27.125,14.5936565 L27.125,16.7812687 C27.125,19.2991747 26.2656931,21.4896002 24.5478135,23.3521862 C22.8299339,25.214832 20.7076097,26.2828695 18.1806575,26.556119 L18.1806575,28.8122082 L22.6521863,28.8122082 C22.9549996,28.8122082 23.2173685,28.9206101 23.4382527,29.1371147 C23.6598099,29.3534996 23.770558,29.6099292 23.770558,29.9061041 C23.770558,30.2019199 23.6598099,30.4588283 23.4382527,30.6750935 C23.2173073,30.8914783 22.9549384,31 22.6521863,31 L11.4722018,31 C11.1693885,31 10.9073868,30.8914185 10.6861355,30.6750935 C10.4648229,30.4587684 10.3541361,30.20186 10.3541361,29.9061041 C10.3541361,29.6098693 10.4648229,29.3534398 10.6861355,29.1371147 C10.9073868,28.9206101 11.1693885,28.8122082 11.4722018,28.8122082 L15.9442813,28.8122082 L15.9442813,26.556119 C13.4169008,26.2828695 11.2943931,25.214832 9.57669704,23.3521862 C7.85906218,21.4896002 7,19.2991747 7,16.7812687 L7,14.5936565 C7,14.2975414 7.11062567,14.0412316 7.33199939,13.8247868 C7.55318954,13.6082822 7.81525245,13.5 8.11824931,13.5 C8.42124617,13.5 8.68300315,13.6082822 8.90431568,13.8247868 C9.12550584,14.0412316 9.23619269,14.2975414 9.23619269,14.5936565 L9.23619269,16.7812687 C9.23619269,18.8891507 10.0018227,20.6923581 11.533205,22.1901126 C13.0647709,23.6883459 14.9077163,24.4374626 17.062347,24.4374626 C19.217039,24.4374626 21.0601679,23.6883459 22.5911831,22.1901126 C24.1226878,20.6919391 24.8886237,18.8890909 24.8886237,16.7812687 L24.8886237,14.5936565 C24.8886237,14.2975414 24.9992494,14.0412316 25.2203172,13.8247868 C25.4418745,13.6082822 25.7038762,13.5 26.0063836,13.5 C26.3091969,13.5 26.5718105,13.6082822 26.7924499,13.8247868 Z" id="客服" fill="#9B9B9B" fill-rule="nonzero"></path>
    </g>
</svg>