<?xml version="1.0" encoding="UTF-8"?>
<svg width="30px" height="30px" viewBox="0 0 30 30" version="1.1" xmlns="http://www.w3.org/2000/svg" xmlns:xlink="http://www.w3.org/1999/xlink">
    <!-- Generator: Sketch 48.2 (47327) - http://www.bohemiancoding.com/sketch -->
    <title>game</title>
    <desc>Created with Sketch.</desc>
    <defs></defs>
    <g id="Page-5&amp;4_PK&amp;儲值" stroke="none" stroke-width="1" fill="none" fill-rule="evenodd">
        <path d="M18.399255,9.32881269 L15.7741615,9.32881269 L15.7741615,6.77997987 C15.7741615,6.34236443 15.4317971,6 14.9944213,6 C14.5568657,6 14.2145013,6.34236443 14.2145013,6.77997987 L14.2145013,9.32881269 L11.7035892,9.32881269 C7.46192446,9.32881269 4,12.7715671 4,17.0134116 C4,21.2553159 7.44299407,24.7170007 11.6845989,24.7170007 L18.380085,24.7361707 C22.6219893,24.7361707 26.0839138,21.2932366 26.0839138,17.0515719 C26.1028442,12.7907371 22.6600897,9.32881269 18.399255,9.32881269 Z M18.1966454,22.8381355 L11.8690821,22.8202453 C8.66929373,22.8202453 6.06282408,20.2137757 6.08071423,16.9960405 C6.08071423,13.7961955 8.68741033,11.1897258 11.9051455,11.2076726 L18.214762,11.2255627 C21.4143806,11.2255627 24.0210767,13.8322589 24.0029601,17.0318774 C23.9850133,20.2316658 21.3964338,22.8381355 18.1966454,22.8381355 Z M11.7079954,16.2264106 L10.8585483,16.2264106 L10.8585483,15.3770203 C10.8585483,14.9615163 10.5333613,14.6362724 10.1178572,14.6362724 C9.70212551,14.6362724 9.37688161,14.9615163 9.37688161,15.3770203 L9.37688161,16.2264106 L8.5276621,16.2264106 C8.1119873,16.2264106 7.7867434,16.5516545 7.7867434,16.9673862 C7.7867434,17.3828902 8.1119873,17.7081341 8.5276621,17.7081341 L9.37688161,17.7081341 L9.37688161,18.5575244 C9.37688161,18.9730285 9.70212551,19.2982724 10.1178572,19.2982724 C10.5333613,19.2982724 10.8585483,18.9730285 10.8585483,18.5575244 L10.8585483,17.7081341 L11.7079954,17.7081341 C12.1234995,17.7081341 12.448971,17.3828902 12.448971,16.9673862 C12.448971,16.5516545 12.1234995,16.2264106 11.7079954,16.2264106 Z M19.8758003,15.7565 C19.8758003,16.4151829 19.3418084,16.9491748 18.6831255,16.9491748 C18.0244426,16.9491748 17.4904507,16.4151829 17.4904507,15.7565 C17.4904507,15.0979878 18.0244426,14.5639959 18.6831255,14.5639959 C19.3418084,14.5639959 19.8758003,15.0979878 19.8758003,15.7565 Z M22.2609223,18.1418496 C22.2609223,18.8005325 21.7269304,19.3345244 21.0682475,19.3345244 C20.4097922,19.3345244 19.8758003,18.8005325 19.8758003,18.1418496 C19.8758003,17.4831098 20.4097922,16.9491748 21.0682475,16.9491748 C21.7269304,16.9491748 22.2609223,17.4831098 22.2609223,18.1418496 Z" id="game" fill="#F95959"></path>
    </g>
</svg>