<?xml version="1.0" encoding="UTF-8"?>
<svg width="30px" height="30px" viewBox="0 0 30 30" version="1.1" xmlns="http://www.w3.org/2000/svg" xmlns:xlink="http://www.w3.org/1999/xlink">
    <!-- Generator: Sketch 48.2 (47327) - http://www.bohemiancoding.com/sketch -->
    <title>tag</title>
    <desc>Created with Sketch.</desc>
    <defs></defs>
    <g id="Page-2&amp;3_活動&amp;主播" stroke="none" stroke-width="1" fill="none" fill-rule="evenodd">
        <path d="M22.2491113,14.3897667 L14.8113872,6.95009765 L6.95010254,6.95009765 L6.95010254,14.8135731 L14.3881992,22.2449542 C14.5831815,22.4402046 14.8477378,22.5499023 15.1235977,22.5499023 C15.3994576,22.5499023 15.6640139,22.4402046 15.8592883,22.2446619 L22.2482271,15.8540524 C22.6506925,15.4483471 22.650468,14.7936289 22.2491113,14.3897667 Z M23.7290293,17.0096397 L17.0182996,23.722129 C16.5209583,24.2201541 15.8460582,24.5 15.1422774,24.5 C14.4384966,24.5 13.7635965,24.2201541 13.2668831,23.7227571 L5.22870589,15.6918379 C5.08227509,15.5455394 5,15.3470365 5,15.1400456 L5,5.78 C5,5.3492179 5.3492179,5 5.78,5 L15.1375986,5 C15.3445028,5 15.5429297,5.08220633 15.689214,5.22852882 L23.7290293,13.2704515 C24.7569902,14.3048175 24.7569902,15.9752737 23.7290293,17.0096397 Z M12.02,14.36 C10.7276537,14.36 9.68,13.3123463 9.68,12.02 C9.68,10.7276537 10.7276537,9.68 12.02,9.68 C13.3123463,9.68 14.36,10.7276537 14.36,12.02 C14.36,13.3123463 13.3123463,14.36 12.02,14.36 Z" id="tag" fill="#9B9B9B" fill-rule="nonzero"></path>
    </g>
</svg>