<?xml version="1.0" encoding="UTF-8"?>
<svg width="21px" height="18px" viewBox="0 0 21 18" version="1.1" xmlns="http://www.w3.org/2000/svg" xmlns:xlink="http://www.w3.org/1999/xlink">
    <!-- Generator: Sketch 48.2 (47327) - http://www.bohemiancoding.com/sketch -->
    <title>Mask</title>
    <desc>Created with Sketch.</desc>
    <defs>
        <path d="M18.5266318,5.73608216 C18.7269929,6.29838167 18.4304184,6.91552011 17.864214,7.11449943 C17.2980096,7.31347875 16.6765855,7.01894954 16.4762244,6.45665003 C15.7326099,4.36974783 13.9628888,2.80765001 11.7887608,2.31911868 C9.61184156,1.82996015 7.33809794,2.48596283 5.73987265,4.07323758 L1.83219588,7.71978304 C1.39449975,8.12823004 0.706265827,8.10696598 0.294982391,7.67228844 C-0.116301045,7.2376109 -0.0948893229,6.55412342 0.342824439,6.14565997 L4.22600682,2.52270034 C6.32974832,0.432420079 9.36623284,-0.439828934 12.2687489,0.212372792 C15.1712649,0.864574518 17.5338876,2.95001476 18.5266318,5.73608216 Z M20.0447198,9.28575791 C20.3109639,9.40240419 20.5169795,9.61111204 20.6255538,9.87777565 C20.6776048,10.0107119 20.7031145,10.1441761 20.7027791,10.279453 L20.7027791,15.2942871 C20.7027791,15.8905513 20.2158888,16.3739189 19.6152791,16.3739189 C19.0146695,16.3739189 18.5277791,15.8905513 18.5277791,15.2942871 L18.5277791,12.7734915 L16.4767737,14.686342 C14.3730322,16.7759097 11.3365476,17.6478613 8.43403158,16.9958819 C5.53151553,16.3439026 3.16889287,14.2591733 2.17614865,11.4740557 C1.97578753,10.9119479 2.27236208,10.2950198 2.83856645,10.0961084 C3.40477082,9.89719687 4.02619494,10.1916257 4.22655606,10.7537335 C4.97017056,12.8399242 6.73989171,14.4014895 8.9140197,14.8898543 C11.0909389,15.378846 13.3646825,14.723067 14.9629078,13.1363334 L16.8698305,11.3574479 L14.5622488,11.3574479 C13.9616392,11.3574479 13.4747488,10.8740803 13.4747488,10.2778161 C13.4747488,9.6815519 13.9616392,9.19818428 14.5622488,9.19818428 L19.612949,9.19818428 C19.7593145,9.1978929 19.9045811,9.22681272 20.0447198,9.28575791 Z M2.17500135,5.85272973 L6.14053165,5.85272973 C6.74114132,5.85272973 7.22803165,6.3362622 7.22803165,6.93272973 C7.22803165,7.52919726 6.74114132,8.01272973 6.14053165,8.01272973 L1.08750135,8.01272973 C0.486891682,8.01272973 1.34774371e-06,7.52919726 1.34774371e-06,6.93272973 L1.34774371e-06,1.91454791 C1.34774371e-06,1.31808038 0.486891682,0.834547912 1.08750135,0.834547912 C1.68811101,0.834547912 2.17500135,1.31808038 2.17500135,1.91454791 L2.17500135,5.85272973 Z" id="path-1"></path>
    </defs>
    <g id="Page-1&amp;7_會員中心" stroke="none" stroke-width="1" fill="none" fill-rule="evenodd">
        <mask id="mask-2" fill="white">
            <use xlink:href="#path-1"></use>
        </mask>
        <use id="Mask" fill="#F5A623" fill-rule="nonzero" xlink:href="#path-1"></use>
    </g>
</svg>