<?xml version="1.0" encoding="UTF-8"?>
<svg width="24px" height="24px" viewBox="0 0 24 24" version="1.1" xmlns="http://www.w3.org/2000/svg" xmlns:xlink="http://www.w3.org/1999/xlink">
    <!-- Generator: Sketch 48.2 (47327) - http://www.bohemiancoding.com/sketch -->
    <title>heart</title>
    <desc>Created with Sketch.</desc>
    <defs></defs>
    <g id="Page-1&amp;7_會員中心" stroke="none" stroke-width="1" fill="none" fill-rule="evenodd">
        <path d="M11.7420347,6.55020882 L11.980508,6.30800561 C12.8047045,5.47052485 13.9227871,5 15.0886506,5 C16.2545142,5 17.3725968,5.47052485 18.1967933,6.30800561 C19.0211523,7.14486541 19.4844311,8.28043594 19.4844311,9.4645347 C19.4844311,10.6486335 19.0211523,11.784204 18.1966811,12.6211778 L12.2200983,18.6912401 C11.9560711,18.959397 11.5279983,18.959397 11.2639711,18.6912401 L5.28738832,12.6211778 C3.57087054,10.8778119 3.57087056,8.05125748 5.28738837,6.30789168 C7.00390617,4.56452587 9.7869314,4.56452585 11.5034492,6.30789164 L11.7420347,6.55020882 Z M16.1900536,12.337879 L16.8567715,11.6607329 C17.38778,11.1216721 17.6861183,10.3903969 17.6861183,9.62787079 C17.6861183,8.86534472 17.38778,8.13406946 16.8567715,7.59500867 C16.3258036,7.05548276 15.60579,6.75247808 14.8550069,6.75247808 C14.1042238,6.75247808 13.3842103,7.05548276 12.8533467,7.59490268 L12.1867332,8.27194273 C11.94114,8.52137725 11.5429547,8.52137725 11.2973615,8.27194273 L10.6307479,7.59490268 C9.52526152,6.47212542 7.73291394,6.47212544 6.62742754,7.59490271 C5.52194114,8.71767999 5.52194113,10.5380616 6.62742751,11.6608389 L11.7420473,16.8554563 L16.1900536,12.337879 Z" id="heart" fill="#F95959" fill-rule="nonzero"></path>
    </g>
</svg>