<?xml version="1.0" encoding="UTF-8"?>
<svg width="35px" height="35px" viewBox="0 0 35 35" version="1.1" xmlns="http://www.w3.org/2000/svg" xmlns:xlink="http://www.w3.org/1999/xlink">
    <!-- Generator: Sketch 48.2 (47327) - http://www.bohemiancoding.com/sketch -->
    <title>COLOR/line</title>
    <desc>Created with Sketch.</desc>
    <defs>
        <path d="M23.1249561,17.6424038 C23.4541056,17.2346444 24.5309581,15.6687834 24.7128863,15.3292453 C25.1478487,14.5206027 25.4378569,13.6673006 25.5796098,12.7547741 C25.6251117,12.5088825 25.6525093,12.285048 25.6645551,12.0897252 C25.6783573,11.8716196 25.6705341,11.5453906 25.6525263,11.1936622 C25.3752641,6.2242235 20.2377129,2.1875 13.8924992,2.1875 C7.34484101,2.1875 2.12121212,6.47251428 2.12121212,11.6197879 C2.12121212,16.3016362 6.46729059,20.3362397 12.3144419,20.9668482 C13.2835518,21.0731621 13.9835104,21.9738671 13.8749054,22.9711849 L13.6797605,24.7815366 C18.0456078,22.5364446 21.1278336,20.1237097 23.1249561,17.6424038 Z M0,11.6197879 C0,5.14027651 6.26623276,0 13.8924992,0 C21.2768079,0 27.4221148,4.82854647 27.7705101,11.0731302 C27.7933087,11.5181431 27.8024166,11.8979436 27.781377,12.2303797 C27.7638519,12.5145734 27.7253674,12.828986 27.6687603,13.1322189 C27.4930919,14.267011 27.1208995,15.3621268 26.5686775,16.3887646 C26.3158867,16.8605599 25.1640034,18.5355239 24.756203,19.0407165 C22.4661497,21.8859733 18.9537777,24.5898742 14.0150141,27.0484452 C12.7687803,27.6685322 11.3465122,26.6342513 11.4988379,25.2142587 L11.7268716,23.0988037 C5.06273307,22.2298833 0,17.4263 0,11.6197879 Z M12.0919325,23.1422791 C11.96973,23.1290997 11.8480361,23.114602 11.7268716,23.0988037 L11.7667192,22.7291398 C11.7447625,22.9349349 11.8888384,23.1200009 12.0919325,23.1422791 Z M11.4064961,9.28951614 C11.6638934,9.28951614 11.872907,9.50142694 11.872907,9.76190062 L11.872907,14.5899665 C11.872907,14.8508343 11.6638934,15.0626663 11.4064961,15.0626663 L11.1457541,15.0626663 C10.8884347,15.0626663 10.6799655,14.8508343 10.6799655,14.5899665 L10.6799655,9.76190062 C10.6799655,9.50142694 10.8884347,9.28951614 11.1457541,9.28951614 L11.4064961,9.28951614 Z M16.861725,9.28951614 C17.1910752,9.28951614 17.4581958,9.55992315 17.4581958,9.89371419 L17.4581958,14.4329254 C17.4581958,14.7686085 17.1874192,15.0655044 16.8562021,15.0626663 C16.7003948,15.0611684 16.5584335,14.9983362 16.4527209,14.8970322 C16.4171723,14.8628174 13.9987741,11.686284 13.9987741,11.686284 L13.9987741,14.4582317 C13.9987741,14.6248119 13.9322663,14.7763345 13.8240645,14.885601 C13.7164851,14.994631 13.5672896,15.0626663 13.4023034,15.0626663 C13.0732643,15.0626663 12.8061437,14.7920228 12.8061437,14.4582317 L12.8061437,9.91862632 C12.8061437,9.58980194 13.0549844,9.30212988 13.3795118,9.29014683 C13.5655005,9.2830516 13.7332093,9.36251815 13.8471673,9.49212431 C13.8833382,9.53311895 16.2652542,12.6819021 16.2652542,12.6819021 L16.2652542,9.89371419 C16.2652542,9.72713401 16.3317621,9.57561148 16.440275,9.46658149 C16.5478544,9.35723615 16.6967388,9.28951614 16.861725,9.28951614 Z M9.41027406,13.853403 C9.57432686,13.853403 9.72414464,13.9208077 9.83172407,14.0304684 C9.93961465,14.1403656 10.0064337,14.2912574 10.0064337,14.4585471 C10.0064337,14.7923381 9.73931311,15.0629816 9.41027406,15.0629816 L7.02407977,15.0629816 C6.69472957,15.0629816 6.42760898,14.7923381 6.42760898,14.4585471 L6.42760898,9.89402953 C6.42760898,9.72744935 6.49419466,9.57592683 6.60231861,9.46689683 C6.71020919,9.35755149 6.85909352,9.28951614 7.02407977,9.28951614 C7.35350775,9.28951614 7.62055055,9.56023849 7.62055055,9.89402953 L7.62055055,13.853403 L9.41027406,13.853403 Z M21.1038655,10.4982276 L19.3142198,10.4982276 L19.3142198,11.5717355 L21.1038655,11.5717355 C21.2683072,11.5717355 21.4178138,11.6389037 21.5256266,11.7488008 C21.6332061,11.8578308 21.7003363,12.0087227 21.7003363,12.1759335 C21.7003363,12.5098034 21.4332935,12.7804469 21.1038655,12.7804469 L19.3142198,12.7804469 L19.3142198,13.8530877 L21.1038655,13.8530877 C21.2683072,13.8530877 21.4178138,13.9204923 21.5256266,14.0304684 C21.6332061,14.1400502 21.7003363,14.290942 21.7003363,14.4582317 C21.7003363,14.7920228 21.4332935,15.0626663 21.1038655,15.0626663 L18.7180601,15.0626663 C18.3886321,15.0626663 18.1215893,14.7920228 18.1215893,14.4582317 L18.1215893,9.89371419 C18.1215893,9.55992315 18.3886321,9.28951614 18.7180601,9.28951614 L21.1038655,9.28951614 C21.4332935,9.28951614 21.7003363,9.55992315 21.7003363,9.89371419 C21.7003363,10.2275052 21.4332935,10.4982276 21.1038655,10.4982276 Z" id="path-1"></path>
    </defs>
    <g id="Page-1&amp;7_會員中心" stroke="none" stroke-width="1" fill="none" fill-rule="evenodd">
        <g id="COLOR/org" transform="translate(4.000000, 4.000000)">
            <mask id="mask-2" fill="white">
                <use xlink:href="#path-1"></use>
            </mask>
            <use id="Mask" fill="#F5A623" fill-rule="nonzero" xlink:href="#path-1"></use>
        </g>
    </g>
</svg>