<?xml version="1.0" encoding="UTF-8"?>
<svg width="35px" height="35px" viewBox="0 0 35 35" version="1.1" xmlns="http://www.w3.org/2000/svg" xmlns:xlink="http://www.w3.org/1999/xlink">
    <!-- Generator: Sketch 48.2 (47327) - http://www.bohemiancoding.com/sketch -->
    <title>user</title>
    <desc>Created with Sketch.</desc>
    <defs></defs>
    <g id="Page-1&amp;7_會員中心" stroke="none" stroke-width="1" fill="none" fill-rule="evenodd">
        <path d="M24.0056818,27.1392045 C24.0056818,27.743266 23.5159933,28.2329545 22.9119318,28.2329545 C22.3078704,28.2329545 21.8181818,27.743266 21.8181818,27.1392045 L21.8181818,24.9119318 C21.8181818,23.0558157 20.3135024,21.5511364 18.4573864,21.5511364 L9.54829545,21.5511364 C7.69217938,21.5511364 6.1875,23.0558157 6.1875,24.9119318 L6.1875,27.1392045 C6.1875,27.743266 5.69781145,28.2329545 5.09375,28.2329545 C4.48968855,28.2329545 4,27.743266 4,27.1392045 L4,24.9119318 C4,21.8476929 6.48405649,19.3636364 9.54829545,19.3636364 L18.4573864,19.3636364 C21.5216253,19.3636364 24.0056818,21.8476929 24.0056818,24.9119318 L24.0056818,27.1392045 Z M14.0028409,17.0965909 C10.9386019,17.0965909 8.45454545,14.6125344 8.45454545,11.5482955 C8.45454545,8.48405649 10.9386019,6 14.0028409,6 C17.0670799,6 19.5511364,8.48405649 19.5511364,11.5482955 C19.5511364,14.6125344 17.0670799,17.0965909 14.0028409,17.0965909 Z M30.6875,27.1392045 C30.6875,27.743266 30.1978114,28.2329545 29.59375,28.2329545 C28.9896886,28.2329545 28.5,27.743266 28.5,27.1392045 L28.5000003,24.9127477 C28.4988579,23.3811641 27.4623537,22.0440736 25.9794037,21.6611781 C25.3945237,21.5101629 25.0428068,20.9136019 25.1938219,20.3287219 C25.3448371,19.7438419 25.9413981,19.3921249 26.5262781,19.5431401 C28.9744618,20.1752577 30.6856137,22.3826436 30.6875,24.9119318 L30.6875,27.1392045 Z M21.5270026,8.29809304 C20.9418181,8.14826213 20.5888942,7.55241439 20.7387251,6.96722987 C20.8885561,6.38204534 21.4844038,6.02912151 22.0695883,6.17895241 C24.5245909,6.80753238 26.2416891,9.01966741 26.2416891,11.5538636 C26.2416891,14.0880599 24.5245909,16.3001949 22.0695883,16.9287749 C21.4844038,17.0786058 20.8885561,16.7256819 20.7387251,16.1404974 C20.5888942,15.5553129 20.9418181,14.9594651 21.5270026,14.8096342 C23.014083,14.4288815 24.0541891,13.0889144 24.0541891,11.5538636 C24.0541891,10.0188129 23.014083,8.67884578 21.5270026,8.29809304 Z" id="user" fill="#9B9B9B" fill-rule="nonzero"></path>
    </g>
</svg>