<?xml version="1.0" encoding="UTF-8"?>
<svg width="90px" height="90px" viewBox="0 0 90 90" version="1.1" xmlns="http://www.w3.org/2000/svg" xmlns:xlink="http://www.w3.org/1999/xlink">
    <!-- Generator: Sketch 48.2 (47327) - http://www.bohemiancoding.com/sketch -->
    <title>qr</title>
    <desc>Created with Sketch.</desc>
    <defs></defs>
    <g id="Page-1&amp;7_會員中心" stroke="none" stroke-width="1" fill="none" fill-rule="evenodd">
        <path d="M24.9583333,14.8472222 L28.75,14.8472222 L28.75,17.375 L24.9583333,17.375 L24.9583333,14.8472222 Z M22.4292917,18.6388889 L22.4292917,16.1111111 L24.9570694,16.1111111 L24.9570694,18.6388889 L22.4305556,18.6388889 L22.4305556,21.1666667 L21.1666667,21.1666667 L21.1666667,23.6931806 L23.6944444,23.6931806 L23.6944444,26.2209583 L21.1666667,26.2209583 L21.1666667,23.6944444 L18.6388889,23.6944444 L18.6388889,26.2222222 L19.9027778,26.2222222 L19.9027778,28.75 L17.375,28.75 L17.375,27.4861111 L16.1111111,27.4861111 L16.1111111,23.6931806 L18.6388889,23.6931806 L18.6388889,21.1666667 L19.9027778,21.1666667 L19.9027778,18.6388889 L22.4292917,18.6388889 Z M18.6388889,16.1111111 L19.9027778,16.1111111 L19.9027778,18.6388889 L18.6388889,18.6388889 L18.6388889,21.1654028 L16.1111111,21.1654028 L16.1111111,18.637625 L12.3194444,18.637625 L12.3194444,17.3737361 L11.0555556,17.3737361 L11.0555556,18.6388889 L8.52777778,18.6388889 L8.52777778,17.375 L6,17.375 L6,14.8472222 L8.52777778,14.8472222 L8.52777778,16.1111111 L11.0555556,16.1111111 L11.0555556,14.8459583 L13.5833333,14.8459583 L13.5833333,16.1098472 L16.1111111,16.1098472 L16.1111111,11.0555556 L17.375,11.0555556 L17.375,8.52777778 L16.1111111,8.52777778 L16.1111111,6 L17.375,6 L18.6388889,6 L19.9027778,6 L19.9027778,7.26388889 L18.6388889,7.26388889 L18.6388889,8.52777778 L19.9027778,8.52777778 L19.9027778,11.0555556 L18.6388889,11.0555556 L18.6388889,16.1098472 L18.6388889,16.1111111 Z M24.9583333,19.9027778 L27.4861111,19.9027778 L27.4861111,22.4305556 L24.9583333,22.4305556 L24.9583333,19.9027778 Z M26.2222222,26.2222222 L28.75,26.2222222 L28.75,28.75 L26.2222222,28.75 L26.2222222,26.2222222 Z M6,6 L6,13.5833333 L13.5833333,13.5833333 L13.5833333,6 L6,6 Z M11.0555556,11.0555556 L8.52777778,11.0555556 L8.52777778,8.52777778 L11.0555556,8.52777778 L11.0555556,11.0555556 Z M21.1666667,6 L21.1666667,13.5833333 L28.75,13.5833333 L28.75,6 L21.1666667,6 Z M26.2222222,11.0555556 L23.6944444,11.0555556 L23.6944444,8.52777778 L26.2222222,8.52777778 L26.2222222,11.0555556 Z M6,21.1666667 L6,28.75 L13.5833333,28.75 L13.5833333,21.1666667 L6,21.1666667 Z M11.0555556,26.2222222 L8.52777778,26.2222222 L8.52777778,23.6944444 L11.0555556,23.6944444 L11.0555556,26.2222222 Z" id="qr" fill="#fff" fill-rule="nonzero"></path>
    </g>
</svg>