<?xml version="1.0" encoding="UTF-8"?>
<svg width="35px" height="35px" viewBox="0 0 35 35" version="1.1" xmlns="http://www.w3.org/2000/svg" xmlns:xlink="http://www.w3.org/1999/xlink">
    <!-- Generator: Sketch 48.2 (47327) - http://www.bohemiancoding.com/sketch -->
    <title>q&amp;a</title>
    <desc>Created with Sketch.</desc>
    <defs></defs>
    <g id="Page-1&amp;7_會員中心" stroke="none" stroke-width="1" fill="none" fill-rule="evenodd">
        <path d="M15.3006265,15.203866 C15.0600818,15.8876644 14.3107537,16.2469925 13.6269554,16.0064478 C12.943157,15.7659032 12.5838289,15.0165751 12.8243735,14.3327767 C13.6314123,12.0386006 15.9754488,10.6609898 18.3724292,11.0721356 C20.7694095,11.4832815 22.5203717,13.5632935 22.51675,15.9933214 C22.51675,17.5963978 21.5708466,18.8576023 20.094794,19.8416374 C19.2923066,20.376629 18.5047766,20.7266423 17.9442989,20.9134682 C17.2566233,21.1426934 16.5133284,20.7710459 16.2841032,20.0833703 C16.054878,19.3956947 16.4265255,18.6523997 17.1142011,18.4231745 C17.1911375,18.3975291 17.3532617,18.3357675 17.570412,18.2392562 C17.9374728,18.0761181 18.3040433,17.8806138 18.638706,17.6575054 C19.4595284,17.1102904 19.89175,16.5339949 19.8917515,15.991366 C19.8934677,14.8393739 19.0640645,13.8541051 17.9286528,13.6593518 C16.7932411,13.4645985 15.682908,14.117151 15.3006265,15.203866 Z M18,25.4375 C17.2751263,25.4375 16.6875,24.8498737 16.6875,24.125 C16.6875,23.4001263 17.2751263,22.8125 18,22.8125 C18.7248737,22.8125 19.3125,23.4001263 19.3125,24.125 C19.3125,24.8498737 18.7248737,25.4375 18,25.4375 Z M17.34375,30.6875 C9.97420037,30.6875 4,24.7132996 4,17.34375 C4,9.97420037 9.97420037,4 17.34375,4 C24.7132996,4 30.6875,9.97420037 30.6875,17.34375 C30.6875,24.7132996 24.7132996,30.6875 17.34375,30.6875 Z M17.34375,28.0625 C23.2635522,28.0625 28.0625,23.2635522 28.0625,17.34375 C28.0625,11.4239478 23.2635522,6.625 17.34375,6.625 C11.4239478,6.625 6.625,11.4239478 6.625,17.34375 C6.625,23.2635522 11.4239478,28.0625 17.34375,28.0625 Z" id="q&amp;a" fill="#9B9B9B" fill-rule="nonzero"></path>
    </g>
</svg>