<?xml version="1.0" encoding="UTF-8"?>
<svg width="20px" height="20px" viewBox="0 0 20 20" version="1.1" xmlns="http://www.w3.org/2000/svg" xmlns:xlink="http://www.w3.org/1999/xlink">
    <!-- Generator: Sketch 48.2 (47327) - http://www.bohemiancoding.com/sketch -->
    <title>question</title>
    <desc>Created with Sketch.</desc>
    <defs></defs>
    <g id="Page-2&amp;3_活動&amp;主播" stroke="none" stroke-width="1" fill="none" fill-rule="evenodd">
        <path d="M8.45750083,8.40220915 C8.32004674,8.79295107 7.89185927,8.99828142 7.50111735,8.86082733 C7.11037543,8.72337324 6.90504508,8.29518577 7.04249917,7.90444385 C7.5036642,6.59348607 8.84311361,5.80627986 10.2128167,6.04122035 C11.5825197,6.27616084 12.5830696,7.46473913 12.581,8.8533265 C12.581,9.76937018 12.0404838,10.4900585 11.1970251,11.0523642 C10.7384609,11.3580737 10.2884438,11.5580813 9.96817082,11.664839 C9.57521334,11.7958248 9.15047336,11.5834548 9.01948753,11.1904973 C8.8885017,10.7975398 9.10087169,10.3727999 9.49382918,10.241814 C9.53779287,10.2271595 9.63043527,10.1918671 9.75452115,10.1367178 C9.96427015,10.0434961 10.173739,9.93177931 10.3649749,9.80428878 C10.8340162,9.49159454 11.081,9.16228282 11.0810008,8.85220915 C11.0819815,8.19392796 10.6080369,7.63091719 9.95923017,7.51962959 C9.31042346,7.40834199 8.67594743,7.78122914 8.45750083,8.40220915 Z M10,14.25 C9.58578644,14.25 9.25,13.9142136 9.25,13.5 C9.25,13.0857864 9.58578644,12.75 10,12.75 C10.4142136,12.75 10.75,13.0857864 10.75,13.5 C10.75,13.9142136 10.4142136,14.25 10,14.25 Z M9.625,17.25 C5.41382878,17.25 2,13.8361712 2,9.625 C2,5.41382878 5.41382878,2 9.625,2 C13.8361712,2 17.25,5.41382878 17.25,9.625 C17.25,13.8361712 13.8361712,17.25 9.625,17.25 Z M9.625,15.75 C13.0077441,15.75 15.75,13.0077441 15.75,9.625 C15.75,6.24225591 13.0077441,3.5 9.625,3.5 C6.24225591,3.5 3.5,6.24225591 3.5,9.625 C3.5,13.0077441 6.24225591,15.75 9.625,15.75 Z" id="question" fill="#9B9B9B" fill-rule="nonzero"></path>
    </g>
</svg>