<?xml version="1.0" encoding="UTF-8"?>
<svg width="30px" height="30px" viewBox="0 0 30 30" version="1.1" xmlns="http://www.w3.org/2000/svg" xmlns:xlink="http://www.w3.org/1999/xlink">
    <!-- Generator: Sketch 48.2 (47327) - http://www.bohemiancoding.com/sketch -->
    <title>tv</title>
    <desc>Created with Sketch.</desc>
    <defs></defs>
    <g id="Page-2&amp;3_活動&amp;主播" stroke="none" stroke-width="1" fill="none" fill-rule="evenodd">
        <path d="M24.343711,5 L6.63603245,5 C5.73388663,5 5,5.733873 5,6.63600206 L5,19.0196992 C5,19.9218794 5.73388663,20.6559573 6.63603245,20.6559573 L14.6513001,20.6559573 L14.6513001,22.5891451 L13.4485058,22.5891451 C13.0391464,22.5891451 12.7072951,22.9209964 12.7072951,23.3303558 L12.7072951,23.3303558 C12.7072951,23.7397152 13.0391464,24.0715666 13.4485058,24.0715666 L17.5314937,24.0715666 C17.9408531,24.0715666 18.2727045,23.7397152 18.2727045,23.3303558 L18.2727045,23.3303558 C18.2727045,22.9209964 17.9408531,22.5891451 17.5314937,22.5891451 L16.4853181,22.5891451 L16.4853181,20.6559573 L24.343711,20.6559573 C25.245908,20.6559573 25.9799995,19.9218794 25.9799995,19.0196992 L25.9799995,6.63600206 C25.9799995,5.733873 25.245908,5 24.343711,5 Z M7.35377049,6.65173543 L23.6259771,6.65173543 C23.8287943,6.65173543 23.9935332,6.78967697 23.9935332,6.95919976 L23.9935332,14.5357855 L6.98626144,14.5357855 L6.98626144,6.95919976 C6.98626144,6.78967697 7.15118866,6.65173543 7.35377049,6.65173543 Z M23.6161268,19.0387341 L7.36362085,19.0387341 C7.16128429,19.0387341 6.99655675,18.7604033 6.99655675,18.4184471 L6.99655675,16.4137341 L23.9832379,16.4137341 L23.9832379,18.4184471 C23.9832379,18.7604033 23.8186984,19.0387341 23.6161268,19.0387341 Z" id="tv" fill="#FFFFFF"></path>
    </g>
</svg>