<?xml version="1.0" encoding="UTF-8"?>
<svg width="20px" height="20px" viewBox="0 0 20 20" version="1.1" xmlns="http://www.w3.org/2000/svg" xmlns:xlink="http://www.w3.org/1999/xlink">
    <!-- Generator: Sketch 48.2 (47327) - http://www.bohemiancoding.com/sketch -->
    <title>views</title>
    <desc>Created with Sketch.</desc>
    <defs></defs>
    <g id="Page-2&amp;3_活動&amp;主播" stroke="none" stroke-width="1" fill="none" fill-rule="evenodd">
        <path d="M3.84837069,10.0077154 C4.23870778,10.5504325 4.70012183,11.0938143 5.2282975,11.5997103 C6.71704549,13.0256594 8.42556588,13.8720996 10.3333333,13.8720996 C12.2411008,13.8720996 13.9496212,13.0256594 15.4383692,11.5997103 C15.9665448,11.0938143 16.4279589,10.5504325 16.818296,10.0077154 C16.9207641,9.86524579 17.0124727,9.73083843 17.0932328,9.60654725 C17.0124727,9.48225606 16.9207641,9.3478487 16.818296,9.20537905 C16.4279589,8.66266198 15.9665448,8.11928019 15.4383692,7.6133842 C13.9496212,6.18743507 12.2411008,5.3409949 10.3333333,5.3409949 C8.42556588,5.3409949 6.71704549,6.18743507 5.2282975,7.6133842 C4.70012183,8.11928019 4.23870778,8.66266198 3.84837069,9.20537905 C3.74590259,9.3478487 3.65419399,9.48225606 3.57343386,9.60654725 C3.65419399,9.73083843 3.74590259,9.86524579 3.84837069,10.0077154 Z M2.71945168,8.45928478 C3.16049237,7.84607042 3.68062789,7.2335356 4.27884991,6.66054798 C6.00883415,5.00353851 8.03445398,4 10.3333333,4 C12.6322127,4 14.6578325,5.00353851 16.3878168,6.66054798 C16.9860388,7.2335356 17.5061743,7.84607042 17.947215,8.45928478 C18.2140742,8.83032057 18.3974304,9.12302365 18.4953088,9.29880424 L18.6666667,9.60654725 L18.4953088,9.91429026 C18.3974304,10.0900708 18.2140742,10.3827739 17.947215,10.7538097 C17.5061743,11.3670241 16.9860388,11.9795589 16.3878168,12.5525465 C14.6578325,14.209556 12.6322127,15.2130945 10.3333333,15.2130945 C8.03445398,15.2130945 6.00883415,14.209556 4.27884991,12.5525465 C3.68062789,11.9795589 3.16049237,11.3670241 2.71945168,10.7538097 C2.45259251,10.3827739 2.26923626,10.0900708 2.17135788,9.91429026 L2,9.60654725 L2.17135788,9.29880424 C2.26923626,9.12302365 2.45259251,8.83032057 2.71945168,8.45928478 Z M10.3333333,13.0327706 C8.47891689,13.0327706 6.97561533,11.4987981 6.97561533,9.60654725 C6.97561533,7.71429636 8.47891689,6.18032393 10.3333333,6.18032393 C12.1877498,6.18032393 13.6910513,7.71429636 13.6910513,9.60654725 C13.6910513,11.4987981 12.1877498,13.0327706 10.3333333,13.0327706 Z M10.1902401,7.11474847 C8.8903856,7.11474847 7.83333333,8.19336708 7.83333333,9.52017102 C7.83333333,9.70953042 7.98440091,9.86239198 8.17039498,9.86239198 C8.35596825,9.86239198 8.50703583,9.70953042 8.50703583,9.52017102 C8.50703583,8.57251526 9.26153214,7.80262547 10.1902401,7.80262547 C10.3762342,7.80262547 10.5256185,7.64804637 10.5256185,7.45868697 C10.5256185,7.26932757 10.3762342,7.11474847 10.1902401,7.11474847 Z" id="views" fill="#9B9B9B" fill-rule="nonzero"></path>
    </g>
</svg>