<?xml version="1.0" encoding="UTF-8"?>
<svg width="20px" height="20px" viewBox="0 0 20 20" version="1.1" xmlns="http://www.w3.org/2000/svg" xmlns:xlink="http://www.w3.org/1999/xlink">
    <!-- Generator: Sketch 48.2 (47327) - http://www.bohemiancoding.com/sketch -->
    <title>Mask</title>
    <desc>Created with Sketch.</desc>
    <defs></defs>
    <g id="Page-2&amp;3_活動&amp;主播" stroke="none" stroke-width="1" fill="none" fill-rule="evenodd">
        <path d="M10.8460545,15.0773473 C11.4486313,14.5975175 12.0513486,14.055072 12.6126894,13.4625456 C14.190612,11.7969606 15.1290323,10.0765235 15.1290323,8.41663732 C15.1290322,5.74429179 12.9626681,3.57792772 10.2903226,3.57792772 C7.61797705,3.57792772 5.45161294,5.74429179 5.4516129,8.41663732 C5.4516129,10.0765235 6.39003314,11.7969606 7.96795576,13.4625456 C8.52929656,14.055072 9.13201385,14.5975175 9.73459071,15.0773473 C9.93526156,15.2371407 10.1219983,15.3787692 10.2903226,15.5009439 C10.4586469,15.3787692 10.6453836,15.2371407 10.8460545,15.0773473 Z M13.4383017,14.3767127 C12.7928775,15.0579939 12.10275,15.6791085 11.4124693,16.2287766 C11.170589,16.4213849 10.9456501,16.591531 10.743232,16.7377218 C10.6203718,16.8264542 10.5313004,16.8881444 10.4816067,16.9212736 C10.3241538,17.0262421 10.1190281,17.0262421 9.96157523,16.9212736 C9.91188146,16.8881444 9.82281006,16.8264542 9.69994986,16.7377218 C9.49753181,16.591531 9.27259285,16.4213849 9.03071262,16.2287766 C8.34043185,15.6791085 7.65030443,15.0579939 7.00488015,14.3767127 C5.13251779,12.4003302 4,10.3240476 4,8.22159085 C4.00000005,4.78550109 6.78550118,2 10.2215909,2 C13.6576807,2 16.4431818,4.78550109 16.4431819,8.22159085 C16.4431819,10.3240476 15.3106641,12.4003302 13.4383017,14.3767127 Z M10.2449597,10.6189516 C11.5560792,10.6189516 12.6189516,9.55607922 12.6189516,8.24495968 C12.6189516,6.93384014 11.5560792,5.87096774 10.2449597,5.87096774 C8.93384014,5.87096774 7.87096774,6.93384014 7.87096774,8.24495968 C7.87096774,9.55607922 8.93384014,10.6189516 10.2449597,10.6189516 Z" id="locate" fill="#FFFFFF" fill-rule="nonzero"></path>
    </g>
</svg>