<?xml version="1.0" encoding="UTF-8"?>
<svg width="25px" height="25px" viewBox="0 0 25 25" version="1.1" xmlns="http://www.w3.org/2000/svg" xmlns:xlink="http://www.w3.org/1999/xlink">
    <!-- Generator: Sketch 48.2 (47327) - http://www.bohemiancoding.com/sketch -->
    <title>time</title>
    <desc>Created with Sketch.</desc>
    <defs></defs>
    <g id="Page-2&amp;3_活動&amp;主播" stroke="none" stroke-width="1" fill="none" fill-rule="evenodd">
        <path d="M12.53125,22.0625 C7.26728598,22.0625 3,17.795214 3,12.53125 C3,7.26728598 7.26728598,3 12.53125,3 C17.795214,3 22.0625,7.26728598 22.0625,12.53125 C22.0625,17.795214 17.795214,22.0625 12.53125,22.0625 Z M12.53125,20.1875 C16.7596801,20.1875 20.1875,16.7596801 20.1875,12.53125 C20.1875,8.30281988 16.7596801,4.875 12.53125,4.875 C8.30281988,4.875 4.875,8.30281988 4.875,12.53125 C4.875,16.7596801 8.30281988,20.1875 12.53125,20.1875 Z M13.6032699,7.50475993 C13.6032699,7.03614084 13.223379,6.65625 12.7547599,6.65625 C12.2861408,6.65625 11.90625,7.03614084 11.90625,7.50475993 L11.90625,13.2067467 C11.90625,13.4317855 11.9956463,13.6476073 12.1547728,13.8067338 L15.0057662,16.6577272 C15.3371299,16.9890909 15.8743767,16.9890909 16.2057404,16.6577272 C16.5371042,16.3263635 16.5371042,15.7891167 16.2057404,15.4577529 L13.6032699,12.8552824 L13.6032699,7.50475993 Z" id="time" fill="#9B9B9B" fill-rule="nonzero"></path>
    </g>
</svg>