<?xml version="1.0" encoding="UTF-8"?>
<svg width="21px" height="21px" viewBox="0 0 21 21" version="1.1" xmlns="http://www.w3.org/2000/svg" xmlns:xlink="http://www.w3.org/1999/xlink">
    <!-- Generator: Sketch 48.2 (47327) - http://www.bohemiancoding.com/sketch -->
    <title>org</title>
    <desc>Created with Sketch.</desc>
    <defs></defs>
    <g id="Page-1&amp;7_會員中心" stroke="none" stroke-width="1" fill="none" fill-rule="evenodd">
        <path d="M10.6925254,3 C6.45091463,3 3,6.45091463 3,10.6925254 C3,14.9341361 6.45091463,18.3850507 10.6925254,18.3850507 C14.9341361,18.3850507 18.3850507,14.9341361 18.3850507,10.6925254 C18.3850507,6.45091463 14.9341361,3 10.6925254,3 Z M10.91406,4.92909415 C11.2299478,4.75436049 11.6506307,4.72063073 11.9060454,5.04545805 C11.9654668,5.12133122 11.9876278,5.21992878 11.966819,5.31383122 C11.9458224,5.40773366 11.8834712,5.48725024 11.7974941,5.53037024 C11.7500922,5.56883268 11.7094512,5.79859317 11.6878912,5.92198098 C11.6284698,6.26002976 11.5467371,6.72263073 11.090559,6.83651561 C11.004582,6.85822585 10.9253659,6.86746585 10.8533239,6.86746585 C10.6442595,6.86746585 10.4937151,6.7901278 10.3959815,6.71384146 C10.084939,6.47085951 10.0514722,6.05299366 10.0514722,5.88472049 C10.0514722,5.41445707 10.4511585,4.98382049 10.91406,4.92909415 Z M11.1702634,17.0787551 C11.0119439,17.0905117 10.8537746,17.102982 10.6925254,17.102982 C7.15766195,17.102982 4.28206878,14.2273512 4.28206878,10.6925254 C4.28206878,8.94210878 4.98866585,7.35485707 6.12973073,6.19692732 C6.17476634,6.53865707 6.20515317,7.04426537 6.20515317,7.80780488 L6.20515317,7.97904537 C6.20428927,9.4173678 6.20398878,9.80383268 6.93173268,10.5897961 C7.56865415,11.2778005 9.46431902,12.9000966 10.2470522,13.2312717 C10.3249912,13.2644005 10.3547771,13.2900922 10.3600356,13.2900922 C10.358721,13.3398229 10.2949049,13.469521 10.2523483,13.5562493 C10.1628405,13.7380444 10.0514722,13.9642741 10.0514722,14.2182615 C10.0514722,14.6038624 10.4216732,15.0239068 10.8138473,15.4686288 C10.9994737,15.6793083 11.3103659,16.0317429 11.333541,16.1413459 C11.333541,16.3191971 11.2568039,16.7069766 11.1702634,17.0787551 Z M14.561719,15.7914278 C14.9301546,15.2331215 15.1797473,14.7397205 15.1797473,14.5386941 C15.1797473,13.9277649 14.8294912,13.5772459 14.2229566,13.5772459 C14.0266254,13.5571132 13.35804,13.0516551 12.9586541,12.7495522 C12.2152098,12.187039 11.9104776,11.9745941 11.6539737,11.9745941 C11.3714024,11.9745941 11.1403273,12.0950522 10.9847873,12.2099137 C10.7271566,12.015498 10.3719424,11.6724912 10.3719424,11.333541 C10.3719424,10.6295732 9.74936927,10.545662 9.47487366,10.5196698 C9.51607805,10.4495434 9.57463561,10.3810322 9.64359756,10.3534249 C9.8013161,10.2918249 10.0263815,10.4796298 10.1453746,10.5986229 C10.237399,10.6906098 10.374722,10.7187805 10.494579,10.667998 C10.6146239,10.6185678 10.6925254,10.5014902 10.6925254,10.3719424 C10.6925254,9.32185024 11.9016507,8.78716976 12.7843337,8.39661073 C13.4306454,8.11077171 13.8976785,7.90418634 13.8976785,7.48722195 C13.8976785,7.02841463 13.470122,6.67320049 13.0928971,6.35949122 C12.9216566,6.21702244 12.6352541,5.97918634 12.6006605,5.89058 C12.6131307,5.88002537 12.6578659,5.85872829 12.6907317,5.84332829 C12.8885278,5.75074049 13.2566254,5.57848585 13.2566254,4.92308439 C13.2566254,4.88552341 13.2488502,4.85250732 13.2465215,4.81614829 C15.5132512,5.8052039 17.1028317,8.06558585 17.1028317,10.6925254 C17.1028317,12.7730278 16.10232,14.6195629 14.561719,15.7914278 Z" id="org" fill="#9B9B9B"></path>
    </g>
</svg>