<?xml version="1.0" encoding="UTF-8"?>
<svg width="35px" height="35px" viewBox="0 0 35 35" version="1.1" xmlns="http://www.w3.org/2000/svg" xmlns:xlink="http://www.w3.org/1999/xlink">
    <!-- Generator: Sketch 48.2 (47327) - http://www.bohemiancoding.com/sketch -->
    <title>COLOR/instagram</title>
    <desc>Created with Sketch.</desc>
    <defs>
        <path d="M19.1573218,0 L7.09267822,0 C3.18178711,0 0,3.18178711 0,7.09267822 L0,19.1573218 C0,23.0682129 3.18178711,26.25 7.09267822,26.25 L19.1573218,26.25 C23.0682129,26.25 26.25,23.0682129 26.25,19.1573218 L26.25,7.09267822 C26.25,3.18178711 23.0682129,0 19.1573218,0 Z M24.1292871,19.1573218 C24.1292871,21.8988574 21.8989087,24.1292871 19.1573218,24.1292871 L7.09267822,24.1292871 C4.35114258,24.1292871 2.12071289,21.8989087 2.12071289,19.1573218 L2.12071289,7.09267822 C2.12071289,4.35114258 4.35109131,2.12071289 7.09267822,2.12071289 L19.1573218,2.12071289 C21.8988574,2.12071289 24.1292871,4.35109131 24.1292871,7.09267822 L24.1292871,19.1573218 Z M19.0251659,12.2494203 C18.836058,10.974003 18.2542396,9.81803752 17.3426253,8.90632743 C16.4310111,7.99466929 15.2751671,7.41273773 13.9999358,7.22366193 C13.4193123,7.13756724 12.8306361,7.13756724 12.2500645,7.22366193 C10.674027,7.45742176 9.28340875,8.2909348 8.33428463,9.57071661 C7.38516051,10.8504984 6.99109918,12.4233763 7.22483444,13.9994756 C7.45856969,15.5756268 8.29199512,16.9663913 9.5716424,17.9156671 C10.6104889,18.6862588 11.8422877,19.0909091 13.1123757,19.0909091 C13.4067917,19.0909091 13.7033378,19.0691906 13.9998839,19.025182 C15.5759214,18.7914222 16.9665396,17.9579091 17.9156638,16.6781273 C18.8648398,15.3983975 19.2589012,13.8255716 19.0251659,12.2494203 Z M13.6846868,16.8992094 C12.6765444,17.0489528 11.6704801,16.7966959 10.8518612,16.1894607 C10.0332423,15.5822255 9.50010351,14.6924937 9.35063556,13.6842453 C9.20111565,12.6759969 9.45313826,11.6698269 10.0603096,10.8511219 C10.6675329,10.032417 11.5571192,9.49922216 12.5653136,9.34968653 C12.7509926,9.3221487 12.9379704,9.30837978 13.1249482,9.30837978 C13.311926,9.30837978 13.4989558,9.3221487 13.6846348,9.34973849 C15.3591227,9.59804661 16.6510308,10.8900386 16.8993648,12.5647545 C17.2079639,14.6460951 15.7659124,16.5905778 13.6846868,16.8992094 Z M21.1277927,5.91766185 C21.3499531,6.13982223 21.4772727,6.44736235 21.4772727,6.76136364 C21.4772727,7.07530724 21.3499531,7.38284735 21.1277927,7.60506542 C20.9055746,7.8272835 20.5980345,7.95454545 20.2840909,7.95454545 C19.9701473,7.95454545 19.6626072,7.82722581 19.4403891,7.60506542 C19.2182287,7.38284735 19.0909091,7.07582644 19.0909091,6.76136364 C19.0909091,6.44690084 19.2182287,6.13987992 19.4403891,5.91766185 C19.6626072,5.69544378 19.9701473,5.56818182 20.2840909,5.56818182 C20.5980345,5.56818182 20.9055746,5.69550147 21.1277927,5.91766185 Z" id="path-1"></path>
    </defs>
    <g id="Page-1&amp;7_會員中心" stroke="none" stroke-width="1" fill="none" fill-rule="evenodd">
        <g id="COLOR/org" transform="translate(4.000000, 4.000000)">
            <mask id="mask-2" fill="white">
                <use xlink:href="#path-1"></use>
            </mask>
            <use id="Mask" fill="#F5A623" fill-rule="nonzero" xlink:href="#path-1"></use>
        </g>
    </g>
</svg>