<?xml version="1.0" encoding="UTF-8"?>
<svg width="30px" height="30px" viewBox="0 0 30 30" version="1.1" xmlns="http://www.w3.org/2000/svg" xmlns:xlink="http://www.w3.org/1999/xlink">
    <!-- Generator: Sketch 48.2 (47327) - http://www.bohemiancoding.com/sketch -->
    <title>cross</title>
    <desc>Created with Sketch.</desc>
    <defs></defs>
    <g id="Symbols" stroke="none" stroke-width="1" fill="none" fill-rule="evenodd">
        <path d="M23.887134,22.1943393 C24.3545863,22.6617916 24.3545863,23.4196816 23.887134,23.887134 C23.4196816,24.3545863 22.6617916,24.3545863 22.1943393,23.887134 L15.1188616,16.8116563 L8.04338395,23.887134 C7.57593161,24.3545863 6.81804161,24.3545863 6.35058926,23.887134 C5.88313691,23.4196816 5.88313691,22.6617916 6.35058926,22.1943393 L13.4260669,15.1188616 L6.35058926,8.04338395 C5.88313691,7.57593161 5.88313691,6.81804161 6.35058926,6.35058926 C6.81804161,5.88313691 7.57593161,5.88313691 8.04338395,6.35058926 L15.1188616,13.4260669 L22.1943393,6.35058926 C22.6617916,5.88313691 23.4196816,5.88313691 23.887134,6.35058926 C24.3545863,6.81804161 24.3545863,7.57593161 23.887134,8.04338395 L16.8116563,15.1188616 L23.887134,22.1943393 Z" id="cross" fill="#F95959" fill-rule="nonzero"></path>
    </g>
</svg>