<?xml version="1.0" encoding="UTF-8"?>
<svg width="35px" height="35px" viewBox="0 0 35 35" version="1.1" xmlns="http://www.w3.org/2000/svg" xmlns:xlink="http://www.w3.org/1999/xlink">
    <!-- Generator: Sketch 48.2 (47327) - http://www.bohemiancoding.com/sketch -->
    <title>COLOR/facebook</title>
    <desc>Created with Sketch.</desc>
    <defs>
        <path d="M19.1573218,0 L7.09267822,0 C3.18178711,0 0,3.18178711 0,7.09267822 L0,19.1573218 C0,23.0682129 3.18178711,26.25 7.09267822,26.25 L19.1573218,26.25 C23.0682129,26.25 26.25,23.0682129 26.25,19.1573218 L26.25,7.09267822 C26.25,3.18178711 23.0682129,0 19.1573218,0 Z M24.1292871,19.1573218 C24.1292871,21.8988574 21.8989087,24.1292871 19.1573218,24.1292871 L7.09267822,24.1292871 C4.35114258,24.1292871 2.12071289,21.8989087 2.12071289,19.1573218 L2.12071289,7.09267822 C2.12071289,4.35114258 4.35109131,2.12071289 7.09267822,2.12071289 L19.1573218,2.12071289 C21.8988574,2.12071289 24.1292871,4.35109131 24.1292871,7.09267822 L24.1292871,19.1573218 Z M13.5227273,14.8796489 L10.1287713,14.8796489 L10.1287713,11.5686161 L13.5227273,11.5686161 L13.5227273,9.64357314 C13.5227273,7.28447378 15.3894105,5.2978638 17.7651349,5.09090909 L20.5713168,5.09090909 L20.5713168,8.4019419 L18.1893608,8.4019419 C17.4681321,8.4019419 16.9166335,8.93996594 16.9166335,9.64357314 L16.9166335,11.5686161 L21.1590909,11.5686161 L21.1590909,14.8796489 L16.9166832,14.8796489 L16.9166832,24.1292871 L13.5227273,24.1292871 L13.5227273,14.8796489 Z" id="path-1"></path>
    </defs>
    <g id="Page-1&amp;7_會員中心" stroke="none" stroke-width="1" fill="none" fill-rule="evenodd">
        <g id="COLOR/org" transform="translate(4.000000, 4.000000)">
            <mask id="mask-2" fill="white">
                <use xlink:href="#path-1"></use>
            </mask>
            <use id="Mask" fill="#F5A623" fill-rule="nonzero" xlink:href="#path-1"></use>
        </g>
    </g>
</svg>