<?xml version="1.0" encoding="UTF-8"?>
<svg width="88px" height="19px" viewBox="0 0 88 19" version="1.1" xmlns="http://www.w3.org/2000/svg" xmlns:xlink="http://www.w3.org/1999/xlink">
    <!-- Generator: Sketch 48.2 (47327) - http://www.bohemiancoding.com/sketch -->
    <title>logo</title>
    <desc>Created with Sketch.</desc>
    <defs>
        <polygon id="path-1" points="13.9263664 0.0720138462 13.9263664 14 0.084996758 14 0.084996758 0.0720138462 13.9263664 0.0720138462"></polygon>
        <polygon id="path-3" points="0.104676923 0.0895192308 5.95513846 0.0895192308 5.95513846 4.97828846 0.104676923 4.97828846 0.104676923 0.0895192308"></polygon>
    </defs>
    <g id="A1.0_index2" stroke="none" stroke-width="1" fill="none" fill-rule="evenodd" transform="translate(-140.000000, -5175.000000)">
        <g id="FOOTER" transform="translate(0.000000, 4378.000000)">
            <g id="footer" transform="translate(0.000000, 600.000000)">
                <g id="logo" transform="translate(140.000000, 197.000000)">
                    <path d="M6.21233249,11.2521927 C5.2196921,11.2521927 4.41508019,10.4463464 4.41508019,9.45220374 L4.41508019,4.40449045 C4.41508019,3.41034782 5.2196921,2.60450151 6.21233249,2.60450151 C7.77527238,2.60450151 8.62402545,4.04593088 8.62402545,6.92834709 C8.62402545,9.8110952 7.77527238,11.2521927 6.21233249,11.2521927 M7.1001912,1 L2.54090227,1 C1.1375991,1 0,2.17801366 0,3.63105943 L0,16.789233 C0,18.0102827 0.988354843,19 2.20759366,19 C3.42672535,19 4.41508019,18.0102827 4.41508019,16.789233 L4.41508019,12.8566942 L7.1001912,12.8566942 C9.21007434,12.8566942 10.7204091,12.3024259 11.6325883,11.1935575 C12.5441247,10.085021 13,8.66339482 13,6.92834709 C13,5.19363126 12.5441247,3.77233699 11.6325883,2.66302604 C10.7204091,1.55460016 9.21007434,1 7.1001912,1" id="Fill-1" fill="#9B9B9B"></path>
                    <path d="M27.0359003,17.9999929 C28.6220195,17.9999929 29.5166965,16.2782787 28.6804944,15.0418635 L24.5184119,8.88799163 L28.7080929,2.86686922 C29.179276,2.18859567 28.6481376,1.30048886 27.7714366,1.30048886 C27.3887589,1.30048886 27.033151,1.48105785 26.830022,1.77857788 L22.7544358,7.74339839 C22.533225,8.06731987 22.145789,8.26421747 21.7290626,8.26421747 C21.0608834,8.26421747 20.5192766,7.76725513 20.5192766,7.15429602 L20.5192766,3.07277937 C20.5192766,1.9280801 19.507544,1 18.2595854,1 C17.0117326,1 16,1.9280801 16,3.07277937 L16,15.8034766 C16,16.9482819 17.0117326,17.876256 18.2595854,17.876256 C19.507544,17.876256 20.5192766,16.9482819 20.5192766,15.8034766 L20.5192766,10.3752737 L20.5192766,10.3719867 L25.0196255,17.0019331 C25.0196255,17.0019331 25.6887564,18.0030678 27.0359003,17.9999929" id="Fill-3" fill="#9B9B9B"></path>
                    <path d="M46.9493827,16.0043037 L42.3969136,16.0043037 L42.3969136,3.08787108 C42.3969136,1.93477837 41.4126543,1 40.1984568,1 C38.9842593,1 38,1.93477837 38,3.08787108 L38,17.2756322 C38,17.6756259 38.3414609,18 38.7625514,18 L46.9493827,18 C47.5296296,18 48,17.5532246 48,17.0022053 C48,16.4510791 47.5296296,16.0043037 46.9493827,16.0043037" id="Fill-5" fill="#9B9B9B"></path>
                    <path d="M71.7556605,5.34134841 C71.2071684,5.34134841 70.7234911,5.66734547 70.5651042,6.14345688 L67.4923762,15.3824525 C67.3401832,15.8398133 66.6262255,15.8398133 66.4740325,15.3824525 L63.479613,6.47570413 C63.1881679,5.59947053 62.2983476,5 61.2892947,5 C59.7375013,5 58.6359823,6.37164385 59.1119172,7.7111595 L62.3137217,16.6549704 C62.8102293,18.0526019 64.2444492,19 65.8634908,19 C67.4791035,19 68.9110008,18.0565494 69.4103841,16.6630847 L72.9381426,6.81782011 C73.1993925,6.08906921 72.6004644,5.34134841 71.7556605,5.34134841" id="Fill-7" fill="#9B9B9B"></path>
                    <g id="Group-11" transform="translate(74.000000, 5.000000)">
                        <mask id="mask-2" fill="white">
                            <use xlink:href="#path-1"></use>
                        </mask>
                        <g id="Clip-10"></g>
                        <path d="M4.59462901,5.33116769 C4.65020153,4.58259846 4.82461374,3.37795231 5.36665954,2.54150615 C6.13655267,1.35322923 8.01629313,1.27709077 8.87007939,2.40236769 C9.28313282,2.94653692 9.63911756,3.93956769 9.72792672,5.33181385 C9.75165191,5.70173692 9.43520916,6.01544462 9.03647634,6.01544462 L5.28522443,6.01544462 C4.88563664,6.01544462 4.56705649,5.70173692 4.59462901,5.33116769 M9.84163664,9.97292154 C9.65365191,10.9045677 8.77731603,12.2777523 7.27183511,12.2565369 C5.4533313,12.2307985 4.65479695,10.4815523 4.55765191,9.09253692 C4.50475115,8.33567538 5.05577405,7.66593692 5.87846107,7.66593692 L12.1433008,7.66593692 C13.0702931,7.66593692 14.0848122,6.89066 13.9056977,5.38619846 C13.496171,1.94672154 10.7660641,0.0720138462 7.15395725,0.0720138462 C2.83821679,0.0720138462 -0.15970687,2.90184462 0.100735878,7.48016769 C0.504598473,14.57526 7.69867481,13.9882292 7.69867481,13.9882292 C7.69867481,13.9882292 11.9859878,13.9999677 13.4601557,11.2071831 C14.0450565,10.0991369 13.6264458,8.36044462 11.8404305,8.31230615 C11.8404305,8.31230615 10.2025374,8.18361385 9.84163664,9.97292154" id="Fill-9" fill="#9B9B9B" mask="url(#mask-2)"></path>
                    </g>
                    <path d="M57.0724418,16.8849168 L56.2189193,16.8871714 C56.2198136,16.8605666 56.2226955,16.834751 56.2225961,16.8079207 L56.2095781,9.1796794 C56.2074913,7.97333346 55.2635385,6.99752461 54.1011619,7.00000472 L54.1010625,7.00000472 C52.9385866,7.00259755 51.9980125,7.98269022 52.0000994,9.18903616 L52.013018,16.8172775 C52.0131174,16.8444459 52.0160986,16.8708252 52.0170923,16.8976555 L52,16.8977682 C52.0019875,18.0610505 52.832654,19.0022506 53.8552115,18.999996 L57.0760192,18.9913156 C57.5873974,18.9901883 58.001091,18.5177281 57.9999978,17.9360306 C57.9990041,17.3544459 57.5838199,16.8837894 57.0724418,16.8849168" id="Fill-12" fill="#9B9B9B"></path>
                    <g id="Group-16" transform="translate(51.000000, 0.000000)">
                        <mask id="mask-4" fill="white">
                            <use xlink:href="#path-3"></use>
                        </mask>
                        <g id="Clip-15"></g>
                        <path d="M3.02979231,4.97828846 C4.64540769,4.97828846 5.95513846,3.88386538 5.95513846,2.53386538 C5.95513846,1.18386538 4.64540769,0.0894423077 3.02979231,0.0894423077 C1.41429231,0.0894423077 0.104676923,1.18386538 0.104676923,2.53386538 C0.104676923,3.88386538 1.41429231,4.97828846 3.02979231,4.97828846" id="Fill-14" fill="#9B9B9B" mask="url(#mask-4)"></path>
                    </g>
                </g>
            </g>
        </g>
    </g>
</svg>