<?xml version="1.0" encoding="UTF-8"?>
<svg width="30px" height="30px" viewBox="0 0 30 30" version="1.1" xmlns="http://www.w3.org/2000/svg" xmlns:xlink="http://www.w3.org/1999/xlink">
    <!-- Generator: Sketch 48.2 (47327) - http://www.bohemiancoding.com/sketch -->
    <title>lock</title>
    <desc>Created with Sketch.</desc>
    <defs></defs>
    <g id="Page-1&amp;7_會員中心" stroke="none" stroke-width="1" fill="none" fill-rule="evenodd">
        <path d="M8.4375,15.35 C8.12683983,15.35 7.875,15.6018398 7.875,15.9125 L7.875,23.2708333 C7.875,23.5814935 8.12683983,23.8333333 8.4375,23.8333333 L22.3875,23.8333333 C22.6981602,23.8333333 22.95,23.5814935 22.95,23.2708333 L22.95,15.9125 C22.95,15.6018398 22.6981602,15.35 22.3875,15.35 L8.4375,15.35 Z M9.76666667,13.475 L9.76666667,10.6458333 C9.76666667,7.52772568 12.2943923,5 15.4125,5 C18.5306077,5 21.0583333,7.52772568 21.0583333,10.6458333 L21.0583333,13.475 L22.3875,13.475 C23.7336941,13.475 24.825,14.5663059 24.825,15.9125 L24.825,23.2708333 C24.825,24.6170274 23.7336941,25.7083333 22.3875,25.7083333 L8.4375,25.7083333 C7.09130592,25.7083333 6,24.6170274 6,23.2708333 L6,15.9125 C6,14.5663059 7.09130592,13.475 8.4375,13.475 L9.76666667,13.475 Z M11.6416667,13.475 L19.1833333,13.475 L19.1833333,10.6458333 C19.1833333,8.56325959 17.4950737,6.875 15.4125,6.875 C13.3299263,6.875 11.6416667,8.56325959 11.6416667,10.6458333 L11.6416667,13.475 Z" id="lock" fill="#393E46" fill-rule="nonzero"></path>
    </g>
</svg>