<?xml version="1.0" encoding="UTF-8"?>
<svg width="40px" height="40px" viewBox="0 0 40 40" version="1.1" xmlns="http://www.w3.org/2000/svg" xmlns:xlink="http://www.w3.org/1999/xlink">
    <!-- Generator: Sketch 48.2 (47327) - http://www.bohemiancoding.com/sketch -->
    <title>cross</title>
    <desc>Created with Sketch.</desc>
    <defs></defs>
    <g id="Page-1&amp;7_會員中心" stroke="none" stroke-width="1" fill="none" fill-rule="evenodd">
        <path d="M31.8495119,29.5924523 C32.4727817,30.2157221 32.4727817,31.2262421 31.8495119,31.8495119 C31.2262421,32.4727817 30.2157221,32.4727817 29.5924523,31.8495119 L20.1584821,22.4155417 L10.7245119,31.8495119 C10.1012421,32.4727817 9.09072214,32.4727817 8.46745235,31.8495119 C7.84418255,31.2262421 7.84418255,30.2157221 8.46745235,29.5924523 L17.9014226,20.1584821 L8.46745235,10.7245119 C7.84418255,10.1012421 7.84418255,9.09072214 8.46745235,8.46745235 C9.09072214,7.84418255 10.1012421,7.84418255 10.7245119,8.46745235 L20.1584821,17.9014226 L29.5924523,8.46745235 C30.2157221,7.84418255 31.2262421,7.84418255 31.8495119,8.46745235 C32.4727817,9.09072214 32.4727817,10.1012421 31.8495119,10.7245119 L22.4155417,20.1584821 L31.8495119,29.5924523 Z" id="cross" fill="#FFFFFF" fill-rule="nonzero"></path>
    </g>
</svg>